<svg xmlns="http://www.w3.org/2000/svg" xmlns:xlink="http://www.w3.org/1999/xlink" xmlns:lucid="lucid" width="979.63" height="1000.83"><g transform="translate(-4 -0.8376281330800026)" lucid:page-tab-id="BoO2cIdkgHZ1"><path d="M154.77 495.67h87.33v346.76" fill="none"/><path d="M154.77 495.67h10.34m10.34 0h20.67m10.35 0h20.67m10.34 0h4.64v16.02m0 10.33v20.67m0 10.33v20.67m0 10.34v20.67m0 10.35v20.67m0 10.33v20.67m0 10.34v20.67m0 10.34v20.67m0 10.33v20.67m0 10.34v20.67m0 10.34v20.66m0 10.33v10.33" stroke="#000" stroke-width="2" fill="none"/><path d="M154.77 496.67h-1v-2h1zM242.1 857.43l-4.63-14.27h9.27z"/><path d="M242.1 860.67l-6-18.5h12.02zm-3.25-16.5l3.25 10.02 3.26-10.04zM135 122.9c-15.16-1.27-19.14-9.24-19.05-18.2 6.5-4.13 11.52-11.3 13.96-22.48 4.8 7.1 5.7-15.85 5.7-19.65 0-2.84-2.1-4.38-4.15-3.13-1.38-34.47-15.63-38.6-33.04-38.6-17.4 0-31.64 4.13-33.02 38.6-2.04-1.25-4.17.3-4.17 3.13 0 3.8.9 26.74 5.7 19.65 2.34 10.73 7.04 17.76 13.15 21.96.25 9.17-3.6 17.44-19.05 18.7-37 3.1-28.87 25.66-28.87 34.17 0 8.45 27.67 14.02 65.46 14.1h.8c37.78-.08 65.47-5.65 65.47-14.1 0-8.5 8.13-31.08-28.87-34.16z"/><path d="M337.9 52h160v88h-160z" stroke="#000" stroke-width="2" fill="#fff"/><use xlink:href="#a" transform="matrix(1,0,0,1,342.8854271356786,56.99999999996116) translate(37.333333333333336 36.2)"/><use xlink:href="#b" transform="matrix(1,0,0,1,342.8854271356786,56.99999999996116) translate(26.574999999999996 66.60000000000001)"/><use xlink:href="#c" transform="matrix(1,0,0,1,342.8854271356786,56.99999999996116) translate(72.475 66.60000000000001)"/><path d="M498.9 96H580v224.76" stroke="#000" stroke-width="2" fill="none"/><path d="M498.9 97h-1v-2h1zM580 335.76l-4.64-14.26h9.28z"/><path d="M580 339l-6-18.5h12zm-3.26-16.5l3.26 10.03 3.26-10.03zM908.75 438.18h-2v-3.04h2zm0-7.1h-2v-6.1h2zm0-10.15h-2v-6.08h2zm0-10.14h-2v-6.1h2zm0-10.16h-2v-6.08h2zM624.05 381H621v-2h3.04zm10.14 0h-6.1v-2h6.1zm10.13 0h-6.08v-2h6.08zm10.15 0h-6.1v-2h6.1zm10.14 0h-6.08v-2h6.08zm10.15 0h-6.1v-2h6.1zm10.14 0h-6.07v-2h6.08zm4.48 0h-.4v-2h.4zM621 381h-1.06l.06-1-.04-1H621zM907.75 453.18l-4.64-14.27h9.28z"/><path d="M907.75 456.4l-6-18.5h12zm-3.26-16.5l3.25 10.04L911 439.9z"/><use xlink:href="#d" transform="matrix(1,0,0,1,689.3809384190731,369.2) translate(0 14.4)"/><use xlink:href="#e" transform="matrix(1,0,0,1,689.3809384190731,369.2) translate(151.15 14.4)"/><path d="M204.75 97H124.5v-2h80.25zm113.9 0h-62v-2h62z"/><path d="M124.5 97h-.78l.8-1zM333.65 96l-14.27 4.64v-9.28z"/><path d="M336.88 96l-18.5 6V90zm-16.5 3.26L330.4 96l-10.02-3.26z"/><use xlink:href="#f" transform="matrix(1,0,0,1,204.74778035915307,85.19999999999997) translate(0 14.4)"/><use xlink:href="#g" transform="matrix(1,0,0,1,204.74778035915307,85.19999999999997) translate(37.95 14.4)"/><path d="M735.67 677H621.3" stroke="#000" stroke-width="2" fill="none"/><path d="M736.67 678h-1v-2h1zM620.58 681.64L606.3 677l14.28-4.64z"/><path d="M621.58 683l-18.5-6 18.5-6zm-12.03-6l10.03 3.26v-6.52zM243.4 438.18h-2v-3h2zm0-6.97h-2v-5.97h2zm0-9.95h-2v-5.98h2zm0-9.96h-2v-6h2zm0-9.97h-2v-5.98h2zm0-9.96h-2v-4.14h2zm295.82-13.94h-3v-2h3zm-6.97 0h-5.98v-2h5.98zm-9.96 0h-6v-2h6zm-9.97 0h-5.98v-2h5.98zm-9.96 0h-5.98v-2h5.97zm-9.96 0h-5.97v-2h5.98zm-9.95 0h-5.98v-2h5.98zm-9.96 0h-6v-2h6zm-9.97 0h-.5v-2h.5z"/><path d="M540.16 377.43h-.94v-2h1.07zM242.4 453.18l-4.62-14.27h9.27z"/><path d="M242.4 456.4l-6-18.5h12.03zm-3.25-16.5l3.26 10.04 3.27-10.03z"/><use xlink:href="#h" transform="matrix(1,0,0,1,239.62339363293137,365.6269933830594) translate(0 14.4)"/><use xlink:href="#i" transform="matrix(1,0,0,1,239.62339363293137,365.6269933830594) translate(151.15 14.4)"/><path d="M299.3 496.2h231.37v425.47h180.1" fill="none"/><path d="M299.3 496.2h9.96m9.97 0h19.92m9.97 0h19.92m9.97 0h19.93m9.97 0h19.92m9.97 0h19.9m9.97 0h19.93m9.96 0h19.93m9.95 0h2.22v17.73m0 9.96v19.92m0 9.96v19.93m0 9.97v19.93m0 9.96v19.93m0 9.95v19.93m0 9.96v19.93m0 9.96v19.93m0 9.96v19.93m0 9.96v19.94m0 9.96v19.93m0 9.96v19.92m0 9.96v19.93m0 9.97v19.93m0 9.96v9.2h10.72m9.95 0h19.93m9.96 0h19.93m9.96 0h19.93m9.96 0h19.93m9.96 0h19.94m9.96 0h9.96" stroke="#000" stroke-width="2" fill="none"/><path d="M299.3 497.2h-1v-2h1zM725.76 921.67l-14.26 4.63v-9.27z"/><path d="M729 921.67l-18.5 6v-12.02zm-16.5 3.26l10.03-3.26-10.03-3.26z"/><path d="M850 969.67c0 6.62-26.86 12-60 12s-60-5.38-60-12v-96c0-6.63 26.86-12 60-12s60 5.37 60 12z" stroke="#000" stroke-width="2" fill="#fff"/><path d="M850 873.67c0 6.62-26.86 12-60 12s-60-5.38-60-12" stroke="#000" stroke-width="2" fill="none"/><use xlink:href="#j" transform="matrix(1,0,0,1,735.0000000000001,890.666666666667) translate(29.025 35.8)"/><use xlink:href="#k" transform="matrix(1,0,0,1,735.0000000000001,890.666666666667) translate(25.025 57.4)"/><path d="M856.67 725c0 6.63-26.87 12-60 12-33.14 0-60-5.37-60-12v-96c0-6.63 26.86-12 60-12 33.13 0 60 5.37 60 12z" stroke="#000" stroke-width="2" fill="#fff"/><path d="M856.67 629c0 6.63-26.87 12-60 12-33.14 0-60-5.37-60-12" stroke="#000" stroke-width="2" fill="none"/><use xlink:href="#j" transform="matrix(1,0,0,1,741.6666666666669,645.9999999999999) translate(29.025 35.8)"/><use xlink:href="#l" transform="matrix(1,0,0,1,741.6666666666669,645.9999999999999) translate(8.524999999999999 57.4)"/><use xlink:href="#m" transform="matrix(1,0,0,1,741.6666666666669,645.9999999999999) translate(41.525 57.4)"/><path d="M850.86 496.2H561.33v398.47h149.43" fill="none"/><path d="M850.86 496.2h-9.97m-9.98 0h-19.94m-9.96 0h-19.94m-9.97 0h-19.93m-9.97 0h-19.94m-9.97 0h-19.95m-9.96 0h-19.95m-9.97 0h-19.94m-9.97 0h-19.94m-9.97 0h-19.94m-9.96 0h-.43v19.53m0 9.97v19.94m0 9.97v19.95m0 9.97v19.93m0 9.97v19.94m0 9.97v19.94m0 9.97v19.94m0 9.97v19.93m0 9.97V755m0 9.96v19.94m0 9.97v19.94m0 9.98v19.93m0 9.98v19.94m0 9.97v10.07h9.87m9.96 0h19.94m9.97 0H631m9.98 0h19.94m9.97 0h19.93m9.96 0h9.96" stroke="#000" stroke-width="2" fill="none"/><path d="M851.86 497.2h-1v-2h1zM725.76 894.67l-14.26 4.63v-9.27z"/><path d="M729 894.67l-18.5 6v-12.02zm-16.5 3.26l10.03-3.26-10.03-3.26z"/><path d="M490.3 654.2c0-8.84 7.17-16 16-16h79.78c8.83 0 16 7.16 16 16v45.6c0 8.84-7.17 16-16 16H506.3c-8.83 0-16-7.16-16-16z" stroke="#000" stroke-width="2" fill="#fff"/><use xlink:href="#n" transform="matrix(1,0,0,1,495.3068676716456,643.2) translate(9.04938271604938 60.888888888888886)"/><use xlink:href="#o" transform="matrix(1,0,0,1,495.3068676716456,643.2) translate(65.2962962962963 60.888888888888886)"/><path d="M554.6 646.06c-7.13 0-12.82 5.7-12.82 12.8 0 .58 0 1 .14 1.43l-2.84 2.83c-.3.3-.3.86 0 1.28l1.14 1c.14.15.28.58.28.72s-.14.15-.14.3L525 683.04l-.14.28v4.84c.28.43.14.43.7.43l7.54-.14.3-.3v-2.27l2.7-.15.14-.14v-.56l-.15-2 1.7-.14.43-.14v-1.7h2l.13-.15v-3.4h3.27l3.7-4.13c.14-.14.28-.28.57-.28.14 0 .57.13.85.42l1.42 1.28s.3.42.86.42c.28 0 .43-.14.57-.28l2.7-3.13h.43c7.1 0 12.8-5.68 12.8-12.8-.14-7.25-5.83-12.94-12.94-12.94zm2.83 12.8c-1.57 0-2.84-1.27-2.84-2.84 0-1.56 1.26-2.84 2.83-2.84 1.56 0 2.84 1.28 2.84 2.84 0 1.57-1.28 2.85-2.84 2.85z"/><path d="M907.75 536v414h-38.5" stroke="#000" stroke-width="2" fill="none"/><path d="M908.75 536h-2v-1h2zM868.5 954.64L854.24 950l14.26-4.64z"/><path d="M869.5 956l-18.5-6 18.5-6zm-12.03-6l10.03 3.26v-6.52z"/><path d="M851.86 473.4c0-8.82 7.16-16 16-16h79.77c8.84 0 16 7.18 16 16V519c0 8.85-7.16 16-16 16h-79.77c-8.84 0-16-7.15-16-16z" stroke="#000" stroke-width="2" fill="#fff"/><use xlink:href="#p" transform="matrix(1,0,0,1,856.8613065326172,462.4145192667547) translate(20.90123456790123 60.888888888888886)"/><use xlink:href="#o" transform="matrix(1,0,0,1,856.8613065326172,462.4145192667547) translate(53.44444444444444 60.888888888888886)"/><path d="M916.14 465.28c-7.1 0-12.8 5.7-12.8 12.8 0 .57 0 1 .14 1.42l-2.85 2.85c-.28.28-.28.85 0 1.28l1.14 1c.14.13.3.57.3.7 0 .15-.16.15-.16.3l-15.35 16.63-.14.3v4.82c.3.43.16.43.72.43l7.54-.13.28-.3v-2.26l2.7-.14.15-.14v-.57l-.15-2 1.7-.13.43-.14v-1.7h2l.13-.15v-3.42h3.3l3.7-4.1c.13-.15.27-.3.55-.3.14 0 .57.15.86.43l1.43 1.28s.28.44.85.44c.3 0 .43-.15.57-.3l2.7-3.1h.43c7.12 0 12.8-5.7 12.8-12.82-.14-7.25-5.83-12.94-12.94-12.94zm2.84 12.8c-1.56 0-2.84-1.28-2.84-2.84 0-1.57 1.28-2.85 2.84-2.85 1.57 0 2.85 1.27 2.85 2.84 0 1.56-1.28 2.84-2.85 2.84z"/><path d="M620 380c0 22.1-17.9 40-40 40s-40-17.9-40-40 17.9-40 40-40 40 17.9 40 40z" stroke="#000" stroke-width="2" fill="#fff"/><use xlink:href="#q" transform="matrix(1,0,0,1,545,345) translate(10.574999999999996 38.6)"/><path d="M186.53 473.4c0-8.82 7.16-16 16-16h79.77c8.84 0 16 7.18 16 16V519c0 8.85-7.16 16-16 16h-79.77c-8.84 0-16-7.15-16-16z" stroke="#000" stroke-width="2" fill="#fff"/><use xlink:href="#r" transform="matrix(1,0,0,1,191.5279731992839,462.4145192667547) translate(20.38271604938271 60.888888888888886)"/><use xlink:href="#o" transform="matrix(1,0,0,1,191.5279731992839,462.4145192667547) translate(53.96296296296296 60.888888888888886)"/><path d="M250.8 465.28c-7.1 0-12.8 5.7-12.8 12.8 0 .57 0 1 .15 1.42l-2.85 2.85c-.3.28-.3.85 0 1.28l1.14 1c.14.13.3.57.3.7 0 .15-.16.15-.16.3l-15.36 16.63-.14.3v4.82c.28.43.14.43.7.43l7.55-.13.28-.3v-2.26l2.7-.14.16-.14v-.57l-.15-2 1.72-.13.43-.14v-1.7h2l.13-.15v-3.42h3.27l3.7-4.1c.14-.15.28-.3.57-.3.14 0 .57.15.85.43l1.42 1.28s.28.44.85.44c.28 0 .43-.15.57-.3l2.7-3.1h.43c7.1 0 12.8-5.7 12.8-12.82-.14-7.25-5.83-12.94-12.94-12.94zm2.85 12.8c-1.57 0-2.84-1.28-2.84-2.84 0-1.57 1.28-2.85 2.85-2.85s2.85 1.27 2.85 2.84c0 1.56-1.28 2.84-2.85 2.84z"/><path d="M137.9 241.55c0 22.1-17.92 40-40 40-22.1 0-40-17.9-40-40s17.9-40 40-40c22.08 0 40 17.9 40 40z" stroke="#000" stroke-width="2" fill="#fff"/><use xlink:href="#s" transform="matrix(1,0,0,1,62.885427135678555,206.54785260008808) translate(19.5 27.799999999999997)"/><use xlink:href="#t" transform="matrix(1,0,0,1,62.885427135678555,206.54785260008808) translate(18 49.4)"/><path d="M42 472.87c0-8.84 7.16-16 16-16h79.77c8.84 0 16 7.16 16 16v45.6c0 8.83-7.16 16-16 16H58c-8.84 0-16-7.17-16-16z" stroke="#000" stroke-width="2" fill-opacity="0"/><use xlink:href="#u" transform="matrix(1,0,0,1,47.00000000000008,461.8666666666667) translate(17.549999999999997 60.8)"/><use xlink:href="#v" transform="matrix(1,0,0,1,47.00000000000008,461.8666666666667) translate(56.449999999999996 60.8)"/><path d="M106.28 464.73c-7.1 0-12.8 5.7-12.8 12.8 0 .57 0 1 .14 1.42l-2.85 2.85c-.28.28-.28.85 0 1.28l1.14 1c.15.13.3.57.3.7 0 .15-.15.15-.15.3L76.7 501.7l-.15.28v4.84c.28.42.14.42.7.42l7.55-.14.28-.28v-2.28l2.7-.14.15-.14v-.57l-.15-1.98 1.7-.15.44-.14v-1.7h2l.13-.15v-3.4h3.28l3.7-4.14c.14-.14.28-.28.56-.28.13 0 .56.14.85.42l1.42 1.3s.28.4.85.4c.3 0 .43-.13.57-.27l2.7-3.12h.42c7.1 0 12.8-5.7 12.8-12.8-.14-7.26-5.83-12.95-12.94-12.95zm2.84 12.8c-1.56 0-2.84-1.28-2.84-2.84 0-1.58 1.28-2.86 2.84-2.86 1.57 0 2.85 1.28 2.85 2.85 0 1.55-1.28 2.83-2.85 2.83zM98.9 437.63h-2v-75.5h2zm0-97.1h-2v-57.98h2z"/><path d="M97.9 281.55l1-.04v1.05h-2v-1.06zM97.9 452.63l-4.65-14.27h9.27z"/><path d="M97.9 455.87l-6.03-18.5h12.03zm-3.27-16.5l3.26 10.02 3.24-10.04z"/><g><use xlink:href="#w" transform="matrix(1,0,0,1,57.91042713567855,340.52502611173026) translate(0 14.4)"/></g><path d="M302.1 969.67c0 6.62-26.86 12-60 12-33.13 0-60-5.38-60-12v-96c0-6.63 26.87-12 60-12 33.14 0 60 5.37 60 12z" stroke="#000" stroke-width="2" fill="#fff"/><path d="M302.1 873.67c0 6.62-26.86 12-60 12-33.13 0-60-5.38-60-12" stroke="#000" stroke-width="2" fill="none"/><g><use xlink:href="#x" transform="matrix(1,0,0,1,187.1041876046904,890.666666666667) translate(10.524999999999999 46.6)"/></g><path d="M303.1 952h407.66" stroke="#000" stroke-width="2" fill="none"/><path d="M303.1 953h-1v-2h1zM725.76 952l-14.26 4.64v-9.28z"/><path d="M729 952l-18.5 6v-12zm-16.5 3.26l10.03-3.26-10.03-3.26z"/><defs><path d="M76-208v77h127v40H76V0H24v-248h183v40H76" id="y"/><path d="M144 0l-44-69L55 0H2l70-98-66-92h53l41 62 40-62h54l-67 91 71 99h-54" id="z"/><path d="M199 0l-22-63H83L61 0H9l90-248h61L250 0h-51zm-33-102l-36-108c-10 38-24 72-36 108h72" id="A"/><g id="a"><use transform="matrix(0.1111111111111111,0,0,0.1111111111111111,0,0)" xlink:href="#y"/><use transform="matrix(0.1111111111111111,0,0,0.1111111111111111,24.333333333333332,0)" xlink:href="#z"/><use transform="matrix(0.1111111111111111,0,0,0.1111111111111111,46.55555555555556,0)" xlink:href="#A"/></g><path d="M87 75C49 33 22-17 22-94c0-76 28-126 65-167h31c-38 41-64 92-64 168S80 34 118 75H87" id="B"/><path d="M84 4C-5 8 30-112 23-190h32v120c0 31 7 50 39 49 72-2 45-101 50-169h31l1 190h-30c-1-10 1-25-2-33-11 22-28 36-60 37" id="C"/><path d="M135-143c-3-34-86-38-87 0 15 53 115 12 119 90S17 21 10-45l28-5c4 36 97 45 98 0-10-56-113-15-118-90-4-57 82-63 122-42 12 7 21 19 24 35" id="D"/><path d="M100-194c63 0 86 42 84 106H49c0 40 14 67 53 68 26 1 43-12 49-29l28 8c-11 28-37 45-77 45C44 4 14-33 15-96c1-61 26-98 85-98zm52 81c6-60-76-77-97-28-3 7-6 17-6 28h103" id="E"/><path d="M114-163C36-179 61-72 57 0H25l-1-190h30c1 12-1 29 2 39 6-27 23-49 58-41v29" id="F"/><g id="b"><use transform="matrix(0.05,0,0,0.05,0,0)" xlink:href="#B"/><use transform="matrix(0.05,0,0,0.05,5.95,0)" xlink:href="#C"/><use transform="matrix(0.05,0,0,0.05,15.949999999999998,0)" xlink:href="#D"/><use transform="matrix(0.05,0,0,0.05,24.95,0)" xlink:href="#E"/><use transform="matrix(0.05,0,0,0.05,34.95,0)" xlink:href="#F"/></g><path d="M141-36C126-15 110 5 73 4 37 3 15-17 15-53c-1-64 63-63 125-63 3-35-9-54-41-54-24 1-41 7-42 31l-33-3c5-37 33-52 76-52 45 0 72 20 72 64v82c-1 20 7 32 28 27v20c-31 9-61-2-59-35zM48-53c0 20 12 33 32 33 41-3 63-29 60-74-43 2-92-5-92 41" id="G"/><path d="M177-190C167-65 218 103 67 71c-23-6-38-20-44-43l32-5c15 47 100 32 89-28v-30C133-14 115 1 83 1 29 1 15-40 15-95c0-56 16-97 71-98 29-1 48 16 59 35 1-10 0-23 2-32h30zM94-22c36 0 50-32 50-73 0-42-14-75-50-75-39 0-46 34-46 75s6 73 46 73" id="H"/><path d="M117-194c89-4 53 116 60 194h-32v-121c0-31-8-49-39-48C34-167 62-67 57 0H25l-1-190h30c1 10-1 24 2 32 11-22 29-35 61-36" id="I"/><path d="M59-47c-2 24 18 29 38 22v24C64 9 27 4 27-40v-127H5v-23h24l9-43h21v43h35v23H59v120" id="J"/><path d="M33-261c38 41 65 92 65 168S71 34 33 75H2C39 34 66-17 66-93S39-220 2-261h31" id="K"/><g id="c"><use transform="matrix(0.05,0,0,0.05,0,0)" xlink:href="#G"/><use transform="matrix(0.05,0,0,0.05,10,0)" xlink:href="#H"/><use transform="matrix(0.05,0,0,0.05,20,0)" xlink:href="#E"/><use transform="matrix(0.05,0,0,0.05,30,0)" xlink:href="#I"/><use transform="matrix(0.05,0,0,0.05,40,0)" xlink:href="#J"/><use transform="matrix(0.05,0,0,0.05,45,0)" xlink:href="#K"/></g><path d="M185-189c-5-48-123-54-124 2 14 75 158 14 163 119 3 78-121 87-175 55-17-10-28-26-33-46l33-7c5 56 141 63 141-1 0-78-155-14-162-118-5-82 145-84 179-34 5 7 8 16 11 25" id="L"/><path d="M197 0v-115H63V0H30v-248h33v105h134v-105h34V0h-34" id="M"/><path d="M205 0l-28-72H64L36 0H1l101-248h38L239 0h-34zm-38-99l-47-123c-12 45-31 82-46 123h93" id="N"/><path d="M16-82v-28h88v28H16" id="O"/><path d="M101-251c82-7 93 87 43 132L82-64C71-53 59-42 53-27h129V0H18c2-99 128-94 128-182 0-28-16-43-45-43s-46 15-49 41l-32-3c6-41 34-60 81-64" id="P"/><path d="M54-142c48-35 137-8 131 61C196 18 31 33 14-55l32-4c7 23 22 37 52 37 35-1 51-22 54-58 4-55-73-65-99-34H22l8-134h141v27H59" id="Q"/><path d="M110-160c48 1 74 30 74 79 0 53-28 85-80 85-65 0-83-55-86-122-5-90 50-162 133-122 14 7 22 21 27 39l-31 6c-5-40-67-38-82-6-9 19-15 44-15 74 11-20 30-34 60-33zm-7 138c34 0 49-23 49-58s-16-56-50-56c-29 0-50 16-49 49 1 36 15 65 50 65" id="R"/><path d="M109-170H84l-4-78h32zm-65 0H19l-4-78h33" id="S"/><path d="M24 0v-261h32V0H24" id="T"/><path d="M100-194c62-1 85 37 85 99 1 63-27 99-86 99S16-35 15-95c0-66 28-99 85-99zM99-20c44 1 53-31 53-75 0-43-8-75-51-75s-53 32-53 75 10 74 51 75" id="U"/><path d="M96-169c-40 0-48 33-48 73s9 75 48 75c24 0 41-14 43-38l32 2c-6 37-31 61-74 61-59 0-76-41-82-99-10-93 101-131 147-64 4 7 5 14 7 22l-32 3c-4-21-16-35-41-35" id="V"/><path d="M143 0L79-87 56-68V0H24v-261h32v163l83-92h37l-77 82L181 0h-38" id="W"/><path d="M115-194c53 0 69 39 70 98 0 66-23 100-70 100C84 3 66-7 56-30L54 0H23l1-261h32v101c10-23 28-34 59-34zm-8 174c40 0 45-34 45-75 0-40-5-75-45-74-42 0-51 32-51 76 0 43 10 73 51 73" id="X"/><path d="M141 0L90-78 38 0H4l68-98-65-92h35l48 74 47-74h35l-64 92 68 98h-35" id="Y"/><g id="d"><use transform="matrix(0.05,0,0,0.05,0,0)" xlink:href="#L"/><use transform="matrix(0.05,0,0,0.05,12,0)" xlink:href="#M"/><use transform="matrix(0.05,0,0,0.05,24.950000000000003,0)" xlink:href="#N"/><use transform="matrix(0.05,0,0,0.05,36.95,0)" xlink:href="#O"/><use transform="matrix(0.05,0,0,0.05,42.900000000000006,0)" xlink:href="#P"/><use transform="matrix(0.05,0,0,0.05,52.900000000000006,0)" xlink:href="#Q"/><use transform="matrix(0.05,0,0,0.05,62.900000000000006,0)" xlink:href="#R"/><use transform="matrix(0.05,0,0,0.05,72.9,0)" xlink:href="#B"/><use transform="matrix(0.05,0,0,0.05,78.85000000000001,0)" xlink:href="#S"/><use transform="matrix(0.05,0,0,0.05,85.2,0)" xlink:href="#T"/><use transform="matrix(0.05,0,0,0.05,89.15,0)" xlink:href="#U"/><use transform="matrix(0.05,0,0,0.05,99.15,0)" xlink:href="#V"/><use transform="matrix(0.05,0,0,0.05,108.15,0)" xlink:href="#W"/><use transform="matrix(0.05,0,0,0.05,117.15,0)" xlink:href="#X"/><use transform="matrix(0.05,0,0,0.05,127.15,0)" xlink:href="#U"/><use transform="matrix(0.05,0,0,0.05,137.15,0)" xlink:href="#Y"/></g><path d="M106-169C34-169 62-67 57 0H25v-261h32l-1 103c12-21 28-36 61-36 89 0 53 116 60 194h-32v-121c2-32-8-49-39-48" id="Z"/><path d="M24-231v-30h32v30H24zM24 0v-190h32V0H24" id="aa"/><g id="e"><use transform="matrix(0.05,0,0,0.05,0,0)" xlink:href="#Z"/><use transform="matrix(0.05,0,0,0.05,10,0)" xlink:href="#G"/><use transform="matrix(0.05,0,0,0.05,20,0)" xlink:href="#D"/><use transform="matrix(0.05,0,0,0.05,29,0)" xlink:href="#Z"/><use transform="matrix(0.05,0,0,0.05,39,0)" xlink:href="#aa"/><use transform="matrix(0.05,0,0,0.05,42.95,0)" xlink:href="#I"/><use transform="matrix(0.05,0,0,0.05,52.95,0)" xlink:href="#H"/><use transform="matrix(0.05,0,0,0.05,62.95,0)" xlink:href="#S"/><use transform="matrix(0.05,0,0,0.05,69.3,0)" xlink:href="#K"/></g><g id="f"><use transform="matrix(0.05,0,0,0.05,0,0)" xlink:href="#T"/><use transform="matrix(0.05,0,0,0.05,3.95,0)" xlink:href="#U"/><use transform="matrix(0.05,0,0,0.05,13.949999999999998,0)" xlink:href="#H"/><use transform="matrix(0.05,0,0,0.05,23.95,0)" xlink:href="#D"/></g><g id="g"><use transform="matrix(0.05,0,0,0.05,0,0)" xlink:href="#aa"/><use transform="matrix(0.05,0,0,0.05,3.95,0)" xlink:href="#I"/></g><g id="h"><use transform="matrix(0.05,0,0,0.05,0,0)" xlink:href="#L"/><use transform="matrix(0.05,0,0,0.05,12,0)" xlink:href="#M"/><use transform="matrix(0.05,0,0,0.05,24.950000000000003,0)" xlink:href="#N"/><use transform="matrix(0.05,0,0,0.05,36.95,0)" xlink:href="#O"/><use transform="matrix(0.05,0,0,0.05,42.900000000000006,0)" xlink:href="#P"/><use transform="matrix(0.05,0,0,0.05,52.900000000000006,0)" xlink:href="#Q"/><use transform="matrix(0.05,0,0,0.05,62.900000000000006,0)" xlink:href="#R"/><use transform="matrix(0.05,0,0,0.05,72.9,0)" xlink:href="#B"/><use transform="matrix(0.05,0,0,0.05,78.85000000000001,0)" xlink:href="#S"/><use transform="matrix(0.05,0,0,0.05,85.2,0)" xlink:href="#T"/><use transform="matrix(0.05,0,0,0.05,89.15,0)" xlink:href="#U"/><use transform="matrix(0.05,0,0,0.05,99.15,0)" xlink:href="#V"/><use transform="matrix(0.05,0,0,0.05,108.15,0)" xlink:href="#W"/><use transform="matrix(0.05,0,0,0.05,117.15,0)" xlink:href="#X"/><use transform="matrix(0.05,0,0,0.05,127.15,0)" xlink:href="#U"/><use transform="matrix(0.05,0,0,0.05,137.15,0)" xlink:href="#Y"/></g><path d="M179-190L93 31C79 59 56 82 12 73V49c39 6 53-20 64-50L1-190h34L92-34l54-156h33" id="ab"/><path d="M115-194c55 1 70 41 70 98S169 2 115 4C84 4 66-9 55-30l1 105H24l-1-265h31l2 30c10-21 28-34 59-34zm-8 174c40 0 45-34 45-75s-6-73-45-74c-42 0-51 32-51 76 0 43 10 73 51 73" id="ac"/><g id="i"><use transform="matrix(0.05,0,0,0.05,0,0)" xlink:href="#E"/><use transform="matrix(0.05,0,0,0.05,10,0)" xlink:href="#I"/><use transform="matrix(0.05,0,0,0.05,20,0)" xlink:href="#V"/><use transform="matrix(0.05,0,0,0.05,29,0)" xlink:href="#F"/><use transform="matrix(0.05,0,0,0.05,34.95,0)" xlink:href="#ab"/><use transform="matrix(0.05,0,0,0.05,43.95,0)" xlink:href="#ac"/><use transform="matrix(0.05,0,0,0.05,53.95,0)" xlink:href="#J"/><use transform="matrix(0.05,0,0,0.05,58.95,0)" xlink:href="#S"/><use transform="matrix(0.05,0,0,0.05,65.3,0)" xlink:href="#K"/></g><path d="M85-194c31 0 48 13 60 33l-1-100h32l1 261h-30c-2-10 0-23-3-31C134-8 116 4 85 4 32 4 16-35 15-94c0-66 23-100 70-100zm9 24c-40 0-46 34-46 75 0 40 6 74 45 74 42 0 51-32 51-76 0-42-9-74-50-73" id="ad"/><path d="M108 0H70L1-190h34L89-25l56-165h34" id="ae"/><g id="j"><use transform="matrix(0.05,0,0,0.05,0,0)" xlink:href="#ad"/><use transform="matrix(0.05,0,0,0.05,10,0)" xlink:href="#E"/><use transform="matrix(0.05,0,0,0.05,20,0)" xlink:href="#ae"/><use transform="matrix(0.05,0,0,0.05,29,0)" xlink:href="#aa"/><use transform="matrix(0.05,0,0,0.05,32.95,0)" xlink:href="#V"/><use transform="matrix(0.05,0,0,0.05,41.95,0)" xlink:href="#E"/></g><g id="k"><use transform="matrix(0.05,0,0,0.05,0,0)" xlink:href="#D"/><use transform="matrix(0.05,0,0,0.05,9,0)" xlink:href="#J"/><use transform="matrix(0.05,0,0,0.05,14,0)" xlink:href="#U"/><use transform="matrix(0.05,0,0,0.05,24,0)" xlink:href="#F"/><use transform="matrix(0.05,0,0,0.05,29.950000000000003,0)" xlink:href="#G"/><use transform="matrix(0.05,0,0,0.05,39.95,0)" xlink:href="#H"/><use transform="matrix(0.05,0,0,0.05,49.95,0)" xlink:href="#E"/></g><g id="l"><use transform="matrix(0.05,0,0,0.05,0,0)" xlink:href="#W"/><use transform="matrix(0.05,0,0,0.05,9,0)" xlink:href="#E"/><use transform="matrix(0.05,0,0,0.05,19,0)" xlink:href="#ab"/></g><g id="m"><use transform="matrix(0.05,0,0,0.05,0,0)" xlink:href="#D"/><use transform="matrix(0.05,0,0,0.05,9,0)" xlink:href="#J"/><use transform="matrix(0.05,0,0,0.05,14,0)" xlink:href="#U"/><use transform="matrix(0.05,0,0,0.05,24,0)" xlink:href="#F"/><use transform="matrix(0.05,0,0,0.05,29.950000000000003,0)" xlink:href="#G"/><use transform="matrix(0.05,0,0,0.05,39.95,0)" xlink:href="#H"/><use transform="matrix(0.05,0,0,0.05,49.95,0)" xlink:href="#E"/></g><g id="n"><use transform="matrix(0.04938271604938272,0,0,0.04938271604938272,0,0)" xlink:href="#ad"/><use transform="matrix(0.04938271604938272,0,0,0.04938271604938272,9.876543209876544,0)" xlink:href="#E"/><use transform="matrix(0.04938271604938272,0,0,0.04938271604938272,19.75308641975309,0)" xlink:href="#ae"/><use transform="matrix(0.04938271604938272,0,0,0.04938271604938272,28.641975308641978,0)" xlink:href="#aa"/><use transform="matrix(0.04938271604938272,0,0,0.04938271604938272,32.543209876543216,0)" xlink:href="#V"/><use transform="matrix(0.04938271604938272,0,0,0.04938271604938272,41.4320987654321,0)" xlink:href="#E"/></g><g id="o"><use transform="matrix(0.04938271604938272,0,0,0.04938271604938272,0,0)" xlink:href="#W"/><use transform="matrix(0.04938271604938272,0,0,0.04938271604938272,8.88888888888889,0)" xlink:href="#E"/><use transform="matrix(0.04938271604938272,0,0,0.04938271604938272,18.765432098765434,0)" xlink:href="#ab"/></g><g id="p"><use transform="matrix(0.04938271604938272,0,0,0.04938271604938272,0,0)" xlink:href="#D"/><use transform="matrix(0.04938271604938272,0,0,0.04938271604938272,8.88888888888889,0)" xlink:href="#G"/><use transform="matrix(0.04938271604938272,0,0,0.04938271604938272,18.765432098765434,0)" xlink:href="#T"/><use transform="matrix(0.04938271604938272,0,0,0.04938271604938272,22.666666666666668,0)" xlink:href="#J"/></g><path d="M194 0L95-120 63-95V0H30v-248h33v124l119-124h40L117-140 236 0h-42" id="af"/><path d="M30-248c118-7 216 8 213 122C240-48 200 0 122 0H30v-248zM63-27c89 8 146-16 146-99s-60-101-146-95v194" id="ag"/><path d="M63-220v92h138v28H63V0H30v-248h175v28H63" id="ah"/><g id="q"><use transform="matrix(0.05,0,0,0.05,0,0)" xlink:href="#M"/><use transform="matrix(0.05,0,0,0.05,12.950000000000001,0)" xlink:href="#af"/><use transform="matrix(0.05,0,0,0.05,24.950000000000003,0)" xlink:href="#ag"/><use transform="matrix(0.05,0,0,0.05,37.900000000000006,0)" xlink:href="#ah"/></g><g id="r"><use transform="matrix(0.04938271604938272,0,0,0.04938271604938272,0,0)" xlink:href="#E"/><use transform="matrix(0.04938271604938272,0,0,0.04938271604938272,9.876543209876544,0)" xlink:href="#I"/><use transform="matrix(0.04938271604938272,0,0,0.04938271604938272,19.75308641975309,0)" xlink:href="#V"/></g><g id="s"><use transform="matrix(0.05,0,0,0.05,0,0)" xlink:href="#af"/><use transform="matrix(0.05,0,0,0.05,12,0)" xlink:href="#E"/><use transform="matrix(0.05,0,0,0.05,22,0)" xlink:href="#ab"/></g><path d="M143 4C61 4 22-44 18-125c-5-107 100-154 193-111 17 8 29 25 37 43l-32 9c-13-25-37-40-76-40-61 0-88 39-88 99 0 61 29 100 91 101 35 0 62-11 79-27v-45h-74v-28h105v86C228-13 192 4 143 4" id="ai"/><g id="t"><use transform="matrix(0.05,0,0,0.05,0,0)" xlink:href="#ai"/><use transform="matrix(0.05,0,0,0.05,14,0)" xlink:href="#E"/><use transform="matrix(0.05,0,0,0.05,24,0)" xlink:href="#I"/></g><path d="M210-169c-67 3-38 105-44 169h-31v-121c0-29-5-50-35-48C34-165 62-65 56 0H25l-1-190h30c1 10-1 24 2 32 10-44 99-50 107 0 11-21 27-35 58-36 85-2 47 119 55 194h-31v-121c0-29-5-49-35-48" id="aj"/><g id="u"><use transform="matrix(0.05,0,0,0.05,0,0)" xlink:href="#aa"/><use transform="matrix(0.05,0,0,0.05,3.95,0)" xlink:href="#J"/><use transform="matrix(0.05,0,0,0.05,8.95,0)" xlink:href="#E"/><use transform="matrix(0.05,0,0,0.05,18.95,0)" xlink:href="#aj"/></g><g id="v"><use transform="matrix(0.05,0,0,0.05,0,0)" xlink:href="#W"/><use transform="matrix(0.05,0,0,0.05,9,0)" xlink:href="#E"/><use transform="matrix(0.05,0,0,0.05,19,0)" xlink:href="#ab"/></g><g id="w"><use transform="matrix(0.05,0,0,0.05,0,0)" xlink:href="#H"/><use transform="matrix(0.05,0,0,0.05,10,0)" xlink:href="#E"/><use transform="matrix(0.05,0,0,0.05,20,0)" xlink:href="#I"/><use transform="matrix(0.05,0,0,0.05,30,0)" xlink:href="#E"/><use transform="matrix(0.05,0,0,0.05,40,0)" xlink:href="#F"/><use transform="matrix(0.05,0,0,0.05,45.95,0)" xlink:href="#G"/><use transform="matrix(0.05,0,0,0.05,55.95,0)" xlink:href="#J"/><use transform="matrix(0.05,0,0,0.05,60.95,0)" xlink:href="#E"/><use transform="matrix(0.05,0,0,0.05,70.95,0)" xlink:href="#D"/></g><path d="M33 0v-248h34V0H33" id="ak"/><path d="M160-131c35 5 61 23 61 61C221 17 115-2 30 0v-248c76 3 177-17 177 60 0 33-19 50-47 57zm-97-11c50-1 110 9 110-42 0-47-63-36-110-37v79zm0 115c55-2 124 14 124-45 0-56-70-42-124-44v89" id="al"/><g id="x"><use transform="matrix(0.05,0,0,0.05,0,0)" xlink:href="#ak"/><use transform="matrix(0.05,0,0,0.05,5,0)" xlink:href="#I"/><use transform="matrix(0.05,0,0,0.05,15,0)" xlink:href="#ad"/><use transform="matrix(0.05,0,0,0.05,25,0)" xlink:href="#E"/><use transform="matrix(0.05,0,0,0.05,35,0)" xlink:href="#Y"/><use transform="matrix(0.05,0,0,0.05,44,0)" xlink:href="#E"/><use transform="matrix(0.05,0,0,0.05,54,0)" xlink:href="#ad"/><use transform="matrix(0.05,0,0,0.05,64,0)" xlink:href="#ag"/><use transform="matrix(0.05,0,0,0.05,76.95,0)" xlink:href="#al"/></g></defs></g></svg>