<svg xmlns="http://www.w3.org/2000/svg" xmlns:xlink="http://www.w3.org/1999/xlink" xmlns:lucid="lucid" width="827.62" height="610.22"><g transform="translate(0.29145728647080205 -1.6649916247518135)" lucid:page-tab-id="3AX1PbvS4uWC"><path d="M99.7 159.96V565.9h387.7" stroke="#000" stroke-width="5" fill="none"/><path d="M102.2 159.96h-5v-1h5zM502.4 565.9l-14.26 4.62v-9.27z"/><path d="M510.5 565.9l-24.86 8.06V557.8zm-19.86 1.18l3.68-1.2-3.68-1.2z"/><path d="M511.5 379.07h208v202h-208z" fill="#fff"/><path d="M511.5 379.07h208v202h-208zM511.5 421.07h208M615.5 421.07v160" stroke="#000" stroke-width="2" fill="none"/><use xlink:href="#a" transform="matrix(1,0,0,1,521.4970723710285,379.07102177557545) translate(59.222222222222214 26.333333333333336)"/><use xlink:href="#b" transform="matrix(1,0,0,1,516.4970723710285,423.57102177557545) translate(0 17.1)"/><use xlink:href="#c" transform="matrix(1,0,0,1,620.4970723710285,423.57102177557545) translate(0 17.1)"/><use xlink:href="#d" transform="matrix(1,0,0,1,516.4970723710285,455.57102177557545) translate(0 17.1)"/><use xlink:href="#e" transform="matrix(1,0,0,1,620.4970723710285,455.57102177557545) translate(0 17.1)"/><use xlink:href="#f" transform="matrix(1,0,0,1,620.4970723710285,455.57102177557545) translate(64.65 17.1)"/><use xlink:href="#g" transform="matrix(1,0,0,1,620.4970723710285,455.57102177557545) translate(74.30000000000001 17.1)"/><use xlink:href="#h" transform="matrix(1,0,0,1,516.4970723710285,487.57102177557545) translate(0 17.1)"/><use xlink:href="#i" transform="matrix(1,0,0,1,620.4970723710285,487.57102177557545) translate(0 17.1)"/><use xlink:href="#j" transform="matrix(1,0,0,1,516.4970723710285,519.5710217755754) translate(0 17.1)"/><use xlink:href="#i" transform="matrix(1,0,0,1,620.4970723710285,519.5710217755754) translate(0 17.1)"/><use xlink:href="#k" transform="matrix(1,0,0,1,516.4970723710285,551.5710217755754) translate(0 17.1)"/><use xlink:href="#l" transform="matrix(1,0,0,1,620.4970723710285,551.5710217755754) translate(0 17.1)"/><path d="M512.67 169.33H721v138H512.66z" fill="#fff"/><path d="M512.67 169.33H721v138H512.66zM512.67 211.33H721M616.83 211.33v96" stroke="#000" stroke-width="2" fill="none"/><use xlink:href="#m" transform="matrix(1,0,0,1,522.6666666667059,169.33333333337237) translate(32.35185185185185 26.333333333333336)"/><use xlink:href="#n" transform="matrix(1,0,0,1,517.6666666667059,213.83333333337237) translate(0 17.1)"/><use xlink:href="#o" transform="matrix(1,0,0,1,621.8304057043617,213.83333333337237) translate(0 17.1)"/><use xlink:href="#c" transform="matrix(1,0,0,1,517.6666666667059,245.83333333337237) translate(0 17.1)"/><use xlink:href="#c" transform="matrix(1,0,0,1,621.8304057043617,245.83333333337237) translate(0 17.1)"/><use xlink:href="#k" transform="matrix(1,0,0,1,517.6666666667059,277.83333333337237) translate(0 17.1)"/><use xlink:href="#l" transform="matrix(1,0,0,1,621.8304057043617,277.83333333337237) translate(0 17.1)"/><path d="M161.44 291.8h115.6v83.1" stroke="#000" stroke-width="5" fill="none"/><path d="M161.44 294.3h-1v-5h1zM277.04 389.9l-4.63-14.26h9.28z"/><path d="M277.04 398l-8.07-24.86h16.15zm-1.2-19.86l1.2 3.68 1.2-3.68z"/><path d="M19.7 21.66h160v137.3h-160z" stroke="#000" stroke-width="2" fill="#fff"/><use xlink:href="#p" transform="matrix(1,0,0,1,24.708542713529198,26.664991624751814) translate(47.629629629629626 21.333333333333336)"/><path d="M33.04 123.66h136v28h-136z" stroke="#e5e5e5" stroke-width="2" fill="#fff" fill-opacity="0"/><use xlink:href="#q" transform="matrix(1,0,0,1,38.041876046940104,128.66499162479053) translate(30.6 14.4)"/><use xlink:href="#r" transform="matrix(1,0,0,1,38.041876046940104,128.66499162479053) translate(49.55 14.4)"/><path d="M33.04 93.6h136v30.67h-136z" stroke="#e5e5e5" stroke-width="2" fill="#fff" fill-opacity="0"/><use xlink:href="#s" transform="matrix(1,0,0,1,38.041876046940104,98.6070351758794) translate(23.5 14.4)"/><use xlink:href="#t" transform="matrix(1,0,0,1,38.041876046940104,98.6070351758794) translate(62.5 14.4)"/><path d="M33.04 61.4h136v31.87h-136z" stroke="#e5e5e5" stroke-width="2" fill="#fff" fill-opacity="0"/><use xlink:href="#u" transform="matrix(1,0,0,1,38.04187604694006,66.40703517587943) translate(14.075000000000003 14.6)"/><use xlink:href="#t" transform="matrix(1,0,0,1,38.04187604694006,66.40703517587943) translate(71.92500000000001 14.6)"/><path d="M170.04 77.34h631.3v456.24h-57.75" stroke="#000" stroke-width="5" fill="none"/><path d="M170.04 79.84h-1v-5h1zM742.85 538.22l-14.26-4.64 14.25-4.63z"/><path d="M745.35 541.66l-24.85-8.08 24.85-8.08zm-8.67-8.08l3.67 1.2v-2.4z"/><path d="M170.04 108.94H760.5v392.33h-16.9" stroke="#000" stroke-width="5" fill="none"/><path d="M170.04 111.44h-1v-5h1zM742.85 505.9l-14.26-4.63 14.25-4.63z"/><path d="M745.35 509.35l-24.85-8.08 24.85-8.07zm-8.67-8.08l3.67 1.2v-2.4z"/><path d="M347.38 480.94h75.3v-189.1h65.9" stroke="#000" stroke-width="5" fill="none"/><path d="M347.38 483.44h-1v-5h1zM503.58 291.84l-14.27 4.64v-9.27z"/><path d="M511.67 291.84l-24.86 8.08v-16.15zm-19.86 1.2l3.7-1.2-3.7-1.2z"/><path d="M363.44 273.68c0-8.84 7.16-16 16-16h79.77c8.84 0 16 7.16 16 16v45.6c0 8.84-7.16 16-16 16h-79.76c-8.84 0-16-7.16-16-16z" stroke="#000" stroke-width="2" fill="#fff"/><use xlink:href="#v" transform="matrix(1,0,0,1,368.43618090447626,262.6787269682208) translate(7.098765432098759 60.888888888888886)"/><use xlink:href="#w" transform="matrix(1,0,0,1,368.43618090447626,262.6787269682208) translate(66.25925925925927 60.888888888888886)"/><path d="M427.72 265.54c-7.12 0-12.8 5.7-12.8 12.8 0 .57 0 1 .13 1.43l-2.84 2.84c-.28.3-.28.87 0 1.3l1.15 1c.14.13.28.56.28.7 0 .14-.14.15-.14.3l-15.37 16.63-.15.28v4.85c.3.42.15.42.72.42l7.53-.14.3-.28v-2.28l2.7-.14.14-.14v-.58l-.15-2 1.7-.14.43-.14v-1.7h2l.14-.15v-3.42h3.26l3.7-4.13c.14-.14.28-.28.57-.28.14 0 .57.14.85.43l1.42 1.28s.3.42.86.42c.28 0 .43-.14.57-.28l2.7-3.13h.43c7.1 0 12.8-5.7 12.8-12.8-.14-7.27-5.83-12.96-12.94-12.96zm2.84 12.8c-1.57 0-2.84-1.28-2.84-2.84 0-1.57 1.27-2.85 2.84-2.85 1.56 0 2.84 1.28 2.84 2.85 0 1.56-1.28 2.85-2.84 2.85z"/><path d="M363.4 69.25c0-8.83 7.16-16 16-16h80.12c8.84 0 16 7.17 16 16v45.85c0 8.83-7.16 16-16 16H379.4c-8.84 0-16-7.17-16-16z" stroke="#000" stroke-width="2" fill="#fff"/><use xlink:href="#x" transform="matrix(1,0,0,1,368.40118149130393,58.253447203304624) translate(15.969135802469133 60.888888888888886)"/><use xlink:href="#y" transform="matrix(1,0,0,1,368.40118149130393,58.253447203304624) translate(59.425925925925924 60.888888888888886)"/><path d="M427.88 61.14c-7.13 0-12.84 5.7-12.84 12.84 0 .58 0 1 .14 1.43l-2.85 2.86c-.3.3-.3.86 0 1.3l1.14 1c.14.13.3.56.3.7 0 .14-.16.15-.16.3l-15.4 16.68-.14.3v4.84c.28.43.14.43.7.43l7.57-.13.3-.3v-2.27l2.7-.15.14-.14v-.56l-.14-2 1.7-.14.44-.14v-1.72h2l.14-.14v-3.42h3.3l3.7-4.14c.15-.14.3-.28.57-.28.14 0 .57.14.86.42l1.43 1.3s.28.4.85.4c.3 0 .44-.13.6-.27l2.7-3.13h.42c7.14 0 12.84-5.7 12.84-12.84-.14-7.28-5.84-13-12.98-13zm2.85 12.84c-1.57 0-2.85-1.28-2.85-2.85s1.28-2.85 2.85-2.85 2.86 1.28 2.86 2.85-1.3 2.85-2.87 2.85z"/><path d="M48.17 269c0-8.82 7.16-16 16-16h80.27c8.83 0 16 7.18 16 16v45.6c0 8.85-7.17 16-16 16H64.17c-8.84 0-16-7.15-16-16z" stroke="#000" stroke-width="2" fill="#fff"/><use xlink:href="#z" transform="matrix(1,0,0,1,53.16951423780955,258.0120603015542) translate(18.049999999999997 60.8)"/><use xlink:href="#A" transform="matrix(1,0,0,1,53.16951423780955,258.0120603015542) translate(56.949999999999996 60.8)"/><path d="M109.5 260.88c-7.12 0-12.8 5.7-12.8 12.8 0 .57 0 1 .14 1.42L94 277.94c-.3.3-.3.86 0 1.28l1.13 1c.14.14.28.57.28.7 0 .15-.13.16-.13.3L79.9 297.86l-.13.3v4.82c.28.43.14.43.7.43l7.54-.13.3-.3v-2.26l2.7-.14.15-.14v-.57l-.15-2 1.7-.13.44-.14v-1.7h2l.13-.15v-3.42h3.27l3.7-4.1c.14-.15.28-.3.57-.3.15 0 .58.15.86.43l1.42 1.28s.3.44.86.44c.28 0 .43-.15.57-.3l2.7-3.12h.44c7.1 0 12.8-5.7 12.8-12.8-.14-7.26-5.83-12.94-12.94-12.94zm2.84 12.8c-1.57 0-2.84-1.28-2.84-2.85 0-1.56 1.27-2.84 2.84-2.84 1.56 0 2.85 1.27 2.85 2.83 0 1.57-1.3 2.85-2.86 2.85z"/><path d="M197.04 399h160v137.3h-160z" stroke="#000" stroke-width="2" fill="#fff"/><g><use xlink:href="#B" transform="matrix(1,0,0,1,202.04187604686254,404) translate(20.259259259259252 21.333333333333336)"/></g><path d="M210.38 496.53h136v31.6h-136z" stroke="#e5e5e5" stroke-width="2" fill="#fff" fill-opacity="0"/><g><use xlink:href="#c" transform="matrix(1,0,0,1,215.37520938027342,501.533333333372) translate(46.025 14.6)"/></g><path d="M210.38 465.14h136v31.6h-136z" stroke="#e5e5e5" stroke-width="2" fill="#fff" fill-opacity="0"/><g><use xlink:href="#C" transform="matrix(1,0,0,1,215.37520938027342,470.1420435511276) translate(8.024999999999999 14.6)"/><use xlink:href="#D" transform="matrix(1,0,0,1,215.37520938027342,470.1420435511276) translate(79.475 14.6)"/></g><path d="M210.38 433.4h136v31.88h-136z" stroke="#e5e5e5" stroke-width="2" fill="#fff" fill-opacity="0"/><g><use xlink:href="#n" transform="matrix(1,0,0,1,215.37520938027336,438.4087102177943) translate(40.025 14.6)"/></g><defs><path d="M25-224v-37h50v37H25zM25 0v-190h50V0H25" id="E"/><path d="M115-3C79 11 28 4 28-45v-112H4v-33h27l15-45h31v45h36v33H77v99c-1 23 16 31 38 25v30" id="F"/><path d="M185-48c-13 30-37 53-82 52C43 2 14-33 14-96s30-98 90-98c62 0 83 45 84 108H66c0 31 8 55 39 56 18 0 30-7 34-22zm-45-69c5-46-57-63-70-21-2 6-4 13-4 21h74" id="G"/><path d="M220-157c-53 9-28 100-34 157h-49v-107c1-27-5-49-29-50C55-147 81-57 75 0H25l-1-190h47c2 12-1 28 3 38 10-53 101-56 108 0 13-22 24-43 59-42 82 1 51 116 57 194h-49v-107c-1-25-5-48-29-50" id="H"/><path d="M137-138c1-29-70-34-71-4 15 46 118 7 119 86 1 83-164 76-172 9l43-7c4 19 20 25 44 25 33 8 57-30 24-41C81-84 22-81 20-136c-2-80 154-74 161-7" id="I"/><g id="a"><use transform="matrix(0.07407407407407408,0,0,0.07407407407407408,0,0)" xlink:href="#E"/><use transform="matrix(0.07407407407407408,0,0,0.07407407407407408,7.407407407407408,0)" xlink:href="#F"/><use transform="matrix(0.07407407407407408,0,0,0.07407407407407408,16.222222222222225,0)" xlink:href="#G"/><use transform="matrix(0.07407407407407408,0,0,0.07407407407407408,31.03703703703704,0)" xlink:href="#H"/><use transform="matrix(0.07407407407407408,0,0,0.07407407407407408,54.74074074074075,0)" xlink:href="#I"/></g><path d="M24-231v-30h32v30H24zM24 0v-190h32V0H24" id="J"/><path d="M85-194c31 0 48 13 60 33l-1-100h32l1 261h-30c-2-10 0-23-3-31C134-8 116 4 85 4 32 4 16-35 15-94c0-66 23-100 70-100zm9 24c-40 0-46 34-46 75 0 40 6 74 45 74 42 0 51-32 51-76 0-42-9-74-50-73" id="K"/><g id="b"><use transform="matrix(0.05,0,0,0.05,0,0)" xlink:href="#J"/><use transform="matrix(0.05,0,0,0.05,3.95,0)" xlink:href="#K"/></g><path d="M84 4C-5 8 30-112 23-190h32v120c0 31 7 50 39 49 72-2 45-101 50-169h31l1 190h-30c-1-10 1-25-2-33-11 22-28 36-60 37" id="L"/><g id="c"><use transform="matrix(0.05,0,0,0.05,0,0)" xlink:href="#L"/><use transform="matrix(0.05,0,0,0.05,10,0)" xlink:href="#L"/><use transform="matrix(0.05,0,0,0.05,20,0)" xlink:href="#J"/><use transform="matrix(0.05,0,0,0.05,23.95,0)" xlink:href="#K"/></g><path d="M141-36C126-15 110 5 73 4 37 3 15-17 15-53c-1-64 63-63 125-63 3-35-9-54-41-54-24 1-41 7-42 31l-33-3c5-37 33-52 76-52 45 0 72 20 72 64v82c-1 20 7 32 28 27v20c-31 9-61-2-59-35zM48-53c0 20 12 33 32 33 41-3 63-29 60-74-43 2-92-5-92 41" id="M"/><path d="M96-169c-40 0-48 33-48 73s9 75 48 75c24 0 41-14 43-38l32 2c-6 37-31 61-74 61-59 0-76-41-82-99-10-93 101-131 147-64 4 7 5 14 7 22l-32 3c-4-21-16-35-41-35" id="N"/><path d="M59-47c-2 24 18 29 38 22v24C64 9 27 4 27-40v-127H5v-23h24l9-43h21v43h35v23H59v120" id="O"/><path d="M108 0H70L1-190h34L89-25l56-165h34" id="P"/><path d="M100-194c63 0 86 42 84 106H49c0 40 14 67 53 68 26 1 43-12 49-29l28 8c-11 28-37 45-77 45C44 4 14-33 15-96c1-61 26-98 85-98zm52 81c6-60-76-77-97-28-3 7-6 17-6 28h103" id="Q"/><g id="d"><use transform="matrix(0.05,0,0,0.05,0,0)" xlink:href="#M"/><use transform="matrix(0.05,0,0,0.05,10,0)" xlink:href="#N"/><use transform="matrix(0.05,0,0,0.05,19,0)" xlink:href="#O"/><use transform="matrix(0.05,0,0,0.05,24,0)" xlink:href="#J"/><use transform="matrix(0.05,0,0,0.05,27.950000000000003,0)" xlink:href="#P"/><use transform="matrix(0.05,0,0,0.05,36.95,0)" xlink:href="#Q"/></g><path d="M109-170H84l-4-78h32zm-65 0H19l-4-78h33" id="R"/><g id="e"><use transform="matrix(0.05,0,0,0.05,0,0)" xlink:href="#R"/><use transform="matrix(0.05,0,0,0.05,6.3500000000000005,0)" xlink:href="#M"/><use transform="matrix(0.05,0,0,0.05,16.35,0)" xlink:href="#N"/><use transform="matrix(0.05,0,0,0.05,25.35,0)" xlink:href="#O"/><use transform="matrix(0.05,0,0,0.05,30.35,0)" xlink:href="#J"/><use transform="matrix(0.05,0,0,0.05,34.300000000000004,0)" xlink:href="#P"/><use transform="matrix(0.05,0,0,0.05,43.300000000000004,0)" xlink:href="#Q"/><use transform="matrix(0.05,0,0,0.05,53.300000000000004,0)" xlink:href="#R"/></g><path d="M32 76v-337h29V76H32" id="S"/><use transform="matrix(0.05,0,0,0.05,0,0)" xlink:href="#S" id="f"/><g id="g"><use transform="matrix(0.05,0,0,0.05,0,0)" xlink:href="#R"/><use transform="matrix(0.05,0,0,0.05,6.3500000000000005,0)" xlink:href="#R"/></g><path d="M177-190C167-65 218 103 67 71c-23-6-38-20-44-43l32-5c15 47 100 32 89-28v-30C133-14 115 1 83 1 29 1 15-40 15-95c0-56 16-97 71-98 29-1 48 16 59 35 1-10 0-23 2-32h30zM94-22c36 0 50-32 50-73 0-42-14-75-50-75-39 0-46 34-46 75s6 73 46 73" id="T"/><path d="M135-143c-3-34-86-38-87 0 15 53 115 12 119 90S17 21 10-45l28-5c4 36 97 45 98 0-10-56-113-15-118-90-4-57 82-63 122-42 12 7 21 19 24 35" id="U"/><g id="h"><use transform="matrix(0.05,0,0,0.05,0,0)" xlink:href="#O"/><use transform="matrix(0.05,0,0,0.05,5,0)" xlink:href="#M"/><use transform="matrix(0.05,0,0,0.05,15,0)" xlink:href="#T"/><use transform="matrix(0.05,0,0,0.05,25,0)" xlink:href="#U"/></g><path d="M115-194c53 0 69 39 70 98 0 66-23 100-70 100C84 3 66-7 56-30L54 0H23l1-261h32v101c10-23 28-34 59-34zm-8 174c40 0 45-34 45-75 0-40-5-75-45-74-42 0-51 32-51 76 0 43 10 73 51 73" id="V"/><path d="M117-194c89-4 53 116 60 194h-32v-121c0-31-8-49-39-48C34-167 62-67 57 0H25l-1-190h30c1 10-1 24 2 32 11-22 29-35 61-36" id="W"/><path d="M114-163C36-179 61-72 57 0H25l-1-190h30c1 12-1 29 2 39 6-27 23-49 58-41v29" id="X"/><path d="M179-190L93 31C79 59 56 82 12 73V49c39 6 53-20 64-50L1-190h34L92-34l54-156h33" id="Y"/><path d="M26 75v-336h71v23H56V52h41v23H26" id="Z"/><path d="M101-251c68 0 85 55 85 127S166 4 100 4C33 4 14-52 14-124c0-73 17-127 87-127zm-1 229c47 0 54-49 54-102s-4-102-53-102c-51 0-55 48-55 102 0 53 5 102 54 102" id="aa"/><path d="M33 0v-38h34V0H33" id="ab"/><path d="M3 75V52h41v-290H3v-23h71V75H3" id="ac"/><g id="i"><use transform="matrix(0.05,0,0,0.05,0,0)" xlink:href="#V"/><use transform="matrix(0.05,0,0,0.05,10,0)" xlink:href="#J"/><use transform="matrix(0.05,0,0,0.05,13.949999999999998,0)" xlink:href="#W"/><use transform="matrix(0.05,0,0,0.05,23.95,0)" xlink:href="#M"/><use transform="matrix(0.05,0,0,0.05,33.95,0)" xlink:href="#X"/><use transform="matrix(0.05,0,0,0.05,39.900000000000006,0)" xlink:href="#Y"/><use transform="matrix(0.05,0,0,0.05,48.900000000000006,0)" xlink:href="#Z"/><use transform="matrix(0.05,0,0,0.05,53.900000000000006,0)" xlink:href="#aa"/><use transform="matrix(0.05,0,0,0.05,63.900000000000006,0)" xlink:href="#ab"/><use transform="matrix(0.05,0,0,0.05,68.9,0)" xlink:href="#ab"/><use transform="matrix(0.05,0,0,0.05,73.9,0)" xlink:href="#W"/><use transform="matrix(0.05,0,0,0.05,83.9,0)" xlink:href="#ac"/></g><path d="M100-194c62-1 85 37 85 99 1 63-27 99-86 99S16-35 15-95c0-66 28-99 85-99zM99-20c44 1 53-31 53-75 0-43-8-75-51-75s-53 32-53 75 10 74 51 75" id="ad"/><g id="j"><use transform="matrix(0.05,0,0,0.05,0,0)" xlink:href="#ad"/><use transform="matrix(0.05,0,0,0.05,10,0)" xlink:href="#X"/><use transform="matrix(0.05,0,0,0.05,15.949999999999998,0)" xlink:href="#J"/><use transform="matrix(0.05,0,0,0.05,19.9,0)" xlink:href="#T"/><use transform="matrix(0.05,0,0,0.05,29.899999999999995,0)" xlink:href="#J"/><use transform="matrix(0.05,0,0,0.05,33.85,0)" xlink:href="#W"/><use transform="matrix(0.05,0,0,0.05,43.85,0)" xlink:href="#U"/></g><path d="M115-194c55 1 70 41 70 98S169 2 115 4C84 4 66-9 55-30l1 105H24l-1-265h31l2 30c10-21 28-34 59-34zm-8 174c40 0 45-34 45-75s-6-73-45-74c-42 0-51 32-51 76 0 43 10 73 51 73" id="ae"/><g id="k"><use transform="matrix(0.05,0,0,0.05,0,0)" xlink:href="#Q"/><use transform="matrix(0.05,0,0,0.05,10,0)" xlink:href="#W"/><use transform="matrix(0.05,0,0,0.05,20,0)" xlink:href="#N"/><use transform="matrix(0.05,0,0,0.05,29,0)" xlink:href="#X"/><use transform="matrix(0.05,0,0,0.05,34.95,0)" xlink:href="#Y"/><use transform="matrix(0.05,0,0,0.05,43.95,0)" xlink:href="#ae"/><use transform="matrix(0.05,0,0,0.05,53.95,0)" xlink:href="#O"/><use transform="matrix(0.05,0,0,0.05,58.95,0)" xlink:href="#Q"/><use transform="matrix(0.05,0,0,0.05,68.95,0)" xlink:href="#K"/></g><path d="M153-248C145-148 188 4 80 4 36 3 13-21 6-62l32-5c4 25 16 42 43 43 27 0 39-20 39-49v-147H72v-28h81" id="af"/><path d="M266 0h-40l-56-210L115 0H75L2-248h35L96-30l15-64 43-154h32l59 218 59-218h35" id="ag"/><path d="M30 0v-248h187v28H63v79h144v27H63v87h162V0H30" id="ah"/><g id="l"><use transform="matrix(0.05,0,0,0.05,0,0)" xlink:href="#af"/><use transform="matrix(0.05,0,0,0.05,9,0)" xlink:href="#ag"/><use transform="matrix(0.05,0,0,0.05,25.950000000000003,0)" xlink:href="#ah"/></g><path d="M147 0L96-86 75-71V0H25v-261h50v150l67-79h53l-66 74L201 0h-54" id="ai"/><path d="M123 10C108 53 80 86 19 72V37c35 8 53-11 59-39L3-190h52l48 148c12-52 28-100 44-148h51" id="aj"/><path d="M110-194c64 0 96 36 96 99 0 64-35 99-97 99-61 0-95-36-95-99 0-62 34-99 96-99zm-1 164c35 0 45-28 45-65 0-40-10-65-43-65-34 0-45 26-45 65 0 36 10 65 43 65" id="ak"/><path d="M135-150c-39-12-60 13-60 57V0H25l-1-190h47c2 13-1 29 3 40 6-28 27-53 61-41v41" id="al"/><g id="m"><use transform="matrix(0.07407407407407408,0,0,0.07407407407407408,0,0)" xlink:href="#ai"/><use transform="matrix(0.07407407407407408,0,0,0.07407407407407408,14.814814814814817,0)" xlink:href="#G"/><use transform="matrix(0.07407407407407408,0,0,0.07407407407407408,29.629629629629633,0)" xlink:href="#aj"/><use transform="matrix(0.07407407407407408,0,0,0.07407407407407408,44.44444444444445,0)" xlink:href="#I"/><use transform="matrix(0.07407407407407408,0,0,0.07407407407407408,59.25925925925927,0)" xlink:href="#F"/><use transform="matrix(0.07407407407407408,0,0,0.07407407407407408,68.07407407407408,0)" xlink:href="#ak"/><use transform="matrix(0.07407407407407408,0,0,0.07407407407407408,84.2962962962963,0)" xlink:href="#al"/><use transform="matrix(0.07407407407407408,0,0,0.07407407407407408,94.66666666666669,0)" xlink:href="#G"/><use transform="matrix(0.07407407407407408,0,0,0.07407407407407408,109.4814814814815,0)" xlink:href="#I"/></g><g id="n"><use transform="matrix(0.05,0,0,0.05,0,0)" xlink:href="#T"/><use transform="matrix(0.05,0,0,0.05,10,0)" xlink:href="#X"/><use transform="matrix(0.05,0,0,0.05,15.949999999999998,0)" xlink:href="#ad"/><use transform="matrix(0.05,0,0,0.05,25.950000000000003,0)" xlink:href="#L"/><use transform="matrix(0.05,0,0,0.05,35.95,0)" xlink:href="#ae"/></g><g id="o"><use transform="matrix(0.05,0,0,0.05,0,0)" xlink:href="#U"/><use transform="matrix(0.05,0,0,0.05,9,0)" xlink:href="#O"/><use transform="matrix(0.05,0,0,0.05,14,0)" xlink:href="#X"/><use transform="matrix(0.05,0,0,0.05,19.95,0)" xlink:href="#J"/><use transform="matrix(0.05,0,0,0.05,23.9,0)" xlink:href="#W"/><use transform="matrix(0.05,0,0,0.05,33.9,0)" xlink:href="#T"/></g><g id="p"><use transform="matrix(0.07407407407407408,0,0,0.07407407407407408,0,0)" xlink:href="#E"/><use transform="matrix(0.07407407407407408,0,0,0.07407407407407408,7.407407407407408,0)" xlink:href="#F"/><use transform="matrix(0.07407407407407408,0,0,0.07407407407407408,16.222222222222225,0)" xlink:href="#G"/><use transform="matrix(0.07407407407407408,0,0,0.07407407407407408,31.03703703703704,0)" xlink:href="#H"/></g><g id="q"><use transform="matrix(0.05,0,0,0.05,0,0)" xlink:href="#J"/><use transform="matrix(0.05,0,0,0.05,3.95,0)" xlink:href="#K"/></g><path d="M87 75C49 33 22-17 22-94c0-76 28-126 65-167h31c-38 41-64 92-64 168S80 34 118 75H87" id="am"/><path d="M33-261c38 41 65 92 65 168S71 34 33 75H2C39 34 66-17 66-93S39-220 2-261h31" id="an"/><g id="r"><use transform="matrix(0.05,0,0,0.05,0,0)" xlink:href="#am"/><use transform="matrix(0.05,0,0,0.05,5.95,0)" xlink:href="#L"/><use transform="matrix(0.05,0,0,0.05,15.949999999999998,0)" xlink:href="#L"/><use transform="matrix(0.05,0,0,0.05,25.950000000000003,0)" xlink:href="#J"/><use transform="matrix(0.05,0,0,0.05,29.899999999999995,0)" xlink:href="#K"/><use transform="matrix(0.05,0,0,0.05,39.9,0)" xlink:href="#an"/></g><g id="s"><use transform="matrix(0.05,0,0,0.05,0,0)" xlink:href="#O"/><use transform="matrix(0.05,0,0,0.05,5,0)" xlink:href="#M"/><use transform="matrix(0.05,0,0,0.05,15,0)" xlink:href="#T"/><use transform="matrix(0.05,0,0,0.05,25,0)" xlink:href="#U"/></g><g id="t"><use transform="matrix(0.05,0,0,0.05,0,0)" xlink:href="#Z"/><use transform="matrix(0.05,0,0,0.05,5,0)" xlink:href="#aa"/><use transform="matrix(0.05,0,0,0.05,15,0)" xlink:href="#ab"/><use transform="matrix(0.05,0,0,0.05,20,0)" xlink:href="#ab"/><use transform="matrix(0.05,0,0,0.05,25,0)" xlink:href="#W"/><use transform="matrix(0.05,0,0,0.05,35,0)" xlink:href="#ac"/></g><g id="u"><use transform="matrix(0.05,0,0,0.05,0,0)" xlink:href="#ad"/><use transform="matrix(0.05,0,0,0.05,10,0)" xlink:href="#X"/><use transform="matrix(0.05,0,0,0.05,15.949999999999998,0)" xlink:href="#J"/><use transform="matrix(0.05,0,0,0.05,19.9,0)" xlink:href="#T"/><use transform="matrix(0.05,0,0,0.05,29.899999999999995,0)" xlink:href="#J"/><use transform="matrix(0.05,0,0,0.05,33.85,0)" xlink:href="#W"/><use transform="matrix(0.05,0,0,0.05,43.85,0)" xlink:href="#U"/></g><path d="M210-169c-67 3-38 105-44 169h-31v-121c0-29-5-50-35-48C34-165 62-65 56 0H25l-1-190h30c1 10-1 24 2 32 10-44 99-50 107 0 11-21 27-35 58-36 85-2 47 119 55 194h-31v-121c0-29-5-49-35-48" id="ao"/><g id="v"><use transform="matrix(0.04938271604938272,0,0,0.04938271604938272,0,0)" xlink:href="#ao"/><use transform="matrix(0.04938271604938272,0,0,0.04938271604938272,14.765432098765434,0)" xlink:href="#M"/><use transform="matrix(0.04938271604938272,0,0,0.04938271604938272,24.641975308641978,0)" xlink:href="#U"/><use transform="matrix(0.04938271604938272,0,0,0.04938271604938272,33.53086419753087,0)" xlink:href="#O"/><use transform="matrix(0.04938271604938272,0,0,0.04938271604938272,38.46913580246914,0)" xlink:href="#Q"/><use transform="matrix(0.04938271604938272,0,0,0.04938271604938272,48.345679012345684,0)" xlink:href="#X"/></g><g id="w"><use transform="matrix(0.04938271604938272,0,0,0.04938271604938272,0,0)" xlink:href="#Q"/><use transform="matrix(0.04938271604938272,0,0,0.04938271604938272,9.876543209876544,0)" xlink:href="#W"/><use transform="matrix(0.04938271604938272,0,0,0.04938271604938272,19.75308641975309,0)" xlink:href="#N"/></g><path d="M106-169C34-169 62-67 57 0H25v-261h32l-1 103c12-21 28-36 61-36 89 0 53 116 60 194h-32v-121c2-32-8-49-39-48" id="ap"/><g id="x"><use transform="matrix(0.04938271604938272,0,0,0.04938271604938272,0,0)" xlink:href="#ap"/><use transform="matrix(0.04938271604938272,0,0,0.04938271604938272,9.876543209876544,0)" xlink:href="#M"/><use transform="matrix(0.04938271604938272,0,0,0.04938271604938272,19.75308641975309,0)" xlink:href="#U"/><use transform="matrix(0.04938271604938272,0,0,0.04938271604938272,28.641975308641978,0)" xlink:href="#ap"/></g><path d="M24 0v-261h32V0H24" id="aq"/><g id="y"><use transform="matrix(0.04938271604938272,0,0,0.04938271604938272,0,0)" xlink:href="#U"/><use transform="matrix(0.04938271604938272,0,0,0.04938271604938272,8.88888888888889,0)" xlink:href="#M"/><use transform="matrix(0.04938271604938272,0,0,0.04938271604938272,18.765432098765434,0)" xlink:href="#aq"/><use transform="matrix(0.04938271604938272,0,0,0.04938271604938272,22.666666666666668,0)" xlink:href="#O"/></g><g id="z"><use transform="matrix(0.05,0,0,0.05,0,0)" xlink:href="#J"/><use transform="matrix(0.05,0,0,0.05,3.95,0)" xlink:href="#O"/><use transform="matrix(0.05,0,0,0.05,8.95,0)" xlink:href="#Q"/><use transform="matrix(0.05,0,0,0.05,18.95,0)" xlink:href="#ao"/></g><path d="M143 0L79-87 56-68V0H24v-261h32v163l83-92h37l-77 82L181 0h-38" id="ar"/><g id="A"><use transform="matrix(0.05,0,0,0.05,0,0)" xlink:href="#ar"/><use transform="matrix(0.05,0,0,0.05,9,0)" xlink:href="#Q"/><use transform="matrix(0.05,0,0,0.05,19,0)" xlink:href="#Y"/></g><g id="B"><use transform="matrix(0.07407407407407408,0,0,0.07407407407407408,0,0)" xlink:href="#ai"/><use transform="matrix(0.07407407407407408,0,0,0.07407407407407408,14.814814814814817,0)" xlink:href="#G"/><use transform="matrix(0.07407407407407408,0,0,0.07407407407407408,29.629629629629633,0)" xlink:href="#aj"/><use transform="matrix(0.07407407407407408,0,0,0.07407407407407408,44.44444444444445,0)" xlink:href="#I"/><use transform="matrix(0.07407407407407408,0,0,0.07407407407407408,59.25925925925927,0)" xlink:href="#F"/><use transform="matrix(0.07407407407407408,0,0,0.07407407407407408,68.07407407407408,0)" xlink:href="#ak"/><use transform="matrix(0.07407407407407408,0,0,0.07407407407407408,84.2962962962963,0)" xlink:href="#al"/><use transform="matrix(0.07407407407407408,0,0,0.07407407407407408,94.66666666666669,0)" xlink:href="#G"/></g><path d="M18-100v-36l175-74v27L42-118l151 64v27" id="as"/><path d="M68-38c1 34 0 65-14 84H32c9-13 17-26 17-46H33v-38h35" id="at"/><g id="C"><use transform="matrix(0.05,0,0,0.05,0,0)" xlink:href="#ar"/><use transform="matrix(0.05,0,0,0.05,9,0)" xlink:href="#Q"/><use transform="matrix(0.05,0,0,0.05,19,0)" xlink:href="#Y"/><use transform="matrix(0.05,0,0,0.05,28,0)" xlink:href="#U"/><use transform="matrix(0.05,0,0,0.05,37,0)" xlink:href="#as"/><use transform="matrix(0.05,0,0,0.05,47.5,0)" xlink:href="#J"/><use transform="matrix(0.05,0,0,0.05,51.45,0)" xlink:href="#K"/><use transform="matrix(0.05,0,0,0.05,61.45,0)" xlink:href="#at"/></g><path d="M18-27v-27l151-64-151-65v-27l175 74v36" id="au"/><g id="D"><use transform="matrix(0.05,0,0,0.05,0,0)" xlink:href="#ar"/><use transform="matrix(0.05,0,0,0.05,9,0)" xlink:href="#Q"/><use transform="matrix(0.05,0,0,0.05,19,0)" xlink:href="#Y"/><use transform="matrix(0.05,0,0,0.05,28,0)" xlink:href="#au"/></g></defs></g></svg>