<?xml version="1.0" encoding="UTF-8" standalone="no"?>
<!DOCTYPE svg PUBLIC "-//W3C//DTD SVG 1.1//EN"
 "http://www.w3.org/Graphics/SVG/1.1/DTD/svg11.dtd">
<!-- Generated by graphviz version 2.40.1 (20161225.0304)
 -->
<!-- Title: stream Pages: 1 -->
<svg width="380pt" height="302pt"
 viewBox="0.00 0.00 379.61 302.00" xmlns="http://www.w3.org/2000/svg" xmlns:xlink="http://www.w3.org/1999/xlink">
<g id="graph0" class="graph" transform="scale(1 1) rotate(0) translate(4 298)">
<title>stream</title>
<polygon fill="#ffffff" stroke="transparent" points="-4,4 -4,-298 375.6138,-298 375.6138,4 -4,4"/>
<!-- NR_ICE_MEDIA_STREAM_UNPAIRED -->
<g id="node1" class="node">
<title>NR_ICE_MEDIA_STREAM_UNPAIRED</title>
<ellipse fill="none" stroke="#000000" cx="165.9136" cy="-276" rx="62.8086" ry="18"/>
<text text-anchor="middle" x="165.9136" y="-271.8" font-family="Times,serif" font-size="14.00" fill="#000000">Unpaired (init)</text>
</g>
<!-- NR_ICE_MEDIA_STREAM_CHECKS_FROZEN -->
<g id="node2" class="node">
<title>NR_ICE_MEDIA_STREAM_CHECKS_FROZEN</title>
<ellipse fill="none" stroke="#000000" cx="165.9136" cy="-190" rx="34.8285" ry="18"/>
<text text-anchor="middle" x="165.9136" y="-185.8" font-family="Times,serif" font-size="14.00" fill="#000000">Frozen</text>
</g>
<!-- NR_ICE_MEDIA_STREAM_UNPAIRED&#45;&gt;NR_ICE_MEDIA_STREAM_CHECKS_FROZEN -->
<g id="edge1" class="edge">
<title>NR_ICE_MEDIA_STREAM_UNPAIRED&#45;&gt;NR_ICE_MEDIA_STREAM_CHECKS_FROZEN</title>
<path fill="none" stroke="#000000" d="M165.9136,-257.7616C165.9136,-246.3597 165.9136,-231.4342 165.9136,-218.494"/>
<polygon fill="#000000" stroke="#000000" points="169.4137,-218.2121 165.9136,-208.2121 162.4137,-218.2121 169.4137,-218.2121"/>
<text text-anchor="middle" x="208.481" y="-228.8" font-family="Times,serif" font-size="14.00" fill="#000000">Pair candidates</text>
</g>
<!-- NR_ICE_MEDIA_STREAM_CHECKS_ACTIVE -->
<g id="node3" class="node">
<title>NR_ICE_MEDIA_STREAM_CHECKS_ACTIVE</title>
<ellipse fill="none" stroke="#000000" cx="165.9136" cy="-104" rx="33.8596" ry="18"/>
<text text-anchor="middle" x="165.9136" y="-99.8" font-family="Times,serif" font-size="14.00" fill="#000000">Active</text>
</g>
<!-- NR_ICE_MEDIA_STREAM_CHECKS_FROZEN&#45;&gt;NR_ICE_MEDIA_STREAM_CHECKS_ACTIVE -->
<g id="edge2" class="edge">
<title>NR_ICE_MEDIA_STREAM_CHECKS_FROZEN&#45;&gt;NR_ICE_MEDIA_STREAM_CHECKS_ACTIVE</title>
<path fill="none" stroke="#000000" d="M165.9136,-171.7616C165.9136,-160.3597 165.9136,-145.4342 165.9136,-132.494"/>
<polygon fill="#000000" stroke="#000000" points="169.4137,-132.2121 165.9136,-122.2121 162.4137,-132.2121 169.4137,-132.2121"/>
<text text-anchor="middle" x="201.4912" y="-142.8" font-family="Times,serif" font-size="14.00" fill="#000000">Start Checks</text>
</g>
<!-- NR_ICE_MEDIA_STREAM_CHECKS_ACTIVE&#45;&gt;NR_ICE_MEDIA_STREAM_CHECKS_ACTIVE -->
<g id="edge5" class="edge">
<title>NR_ICE_MEDIA_STREAM_CHECKS_ACTIVE&#45;&gt;NR_ICE_MEDIA_STREAM_CHECKS_ACTIVE</title>
<path fill="none" stroke="#000000" d="M196.4285,-111.8514C208.0118,-112.1543 217.5929,-109.5371 217.5929,-104 217.5929,-100.1932 213.0643,-97.7666 206.47,-96.7201"/>
<polygon fill="#000000" stroke="#000000" points="206.6113,-93.2226 196.4285,-96.1486 206.2134,-100.2113 206.6113,-93.2226"/>
<text text-anchor="middle" x="292.0328" y="-99.8" font-family="Times,serif" font-size="14.00" fill="#000000">New trickle ICE candidate</text>
</g>
<!-- NR_ICE_MEDIA_STREAM_CHECKS_COMPLETED -->
<g id="node4" class="node">
<title>NR_ICE_MEDIA_STREAM_CHECKS_COMPLETED</title>
<ellipse fill="none" stroke="#000000" cx="48.9136" cy="-18" rx="48.8273" ry="18"/>
<text text-anchor="middle" x="48.9136" y="-13.8" font-family="Times,serif" font-size="14.00" fill="#000000">Completed</text>
</g>
<!-- NR_ICE_MEDIA_STREAM_CHECKS_ACTIVE&#45;&gt;NR_ICE_MEDIA_STREAM_CHECKS_COMPLETED -->
<g id="edge3" class="edge">
<title>NR_ICE_MEDIA_STREAM_CHECKS_ACTIVE&#45;&gt;NR_ICE_MEDIA_STREAM_CHECKS_COMPLETED</title>
<path fill="none" stroke="#000000" d="M133.6822,-98.377C102.9192,-92.2812 59.7918,-81.5783 49.6304,-68 45.053,-61.8834 43.5379,-54.0638 43.5206,-46.4347"/>
<polygon fill="#000000" stroke="#000000" points="47.0208,-46.5611 44.2785,-36.3274 40.0404,-46.0377 47.0208,-46.5611"/>
<text text-anchor="middle" x="156.0552" y="-56.8" font-family="Times,serif" font-size="14.00" fill="#000000">All components have nominated pairs</text>
</g>
<!-- NR_ICE_MEDIA_STREAM_CHECKS_FAILED -->
<g id="node5" class="node">
<title>NR_ICE_MEDIA_STREAM_CHECKS_FAILED</title>
<ellipse fill="none" stroke="#000000" cx="283.9136" cy="-18" rx="32.4237" ry="18"/>
<text text-anchor="middle" x="283.9136" y="-13.8" font-family="Times,serif" font-size="14.00" fill="#000000">Failed</text>
</g>
<!-- NR_ICE_MEDIA_STREAM_CHECKS_ACTIVE&#45;&gt;NR_ICE_MEDIA_STREAM_CHECKS_FAILED -->
<g id="edge4" class="edge">
<title>NR_ICE_MEDIA_STREAM_CHECKS_ACTIVE&#45;&gt;NR_ICE_MEDIA_STREAM_CHECKS_FAILED</title>
<path fill="none" stroke="#000000" d="M198.279,-98.5414C218.7129,-93.62 244.4549,-84.5117 261.9136,-68 268.2817,-61.9773 272.9191,-53.7864 276.2455,-45.7778"/>
<polygon fill="#000000" stroke="#000000" points="279.5788,-46.8519 279.681,-36.2575 272.9944,-44.4758 279.5788,-46.8519"/>
<text text-anchor="middle" x="321.2637" y="-56.8" font-family="Times,serif" font-size="14.00" fill="#000000">Component failed</text>
</g>
</g>
</svg>
