<?xml version="1.0" encoding="UTF-8" standalone="no"?>
<svg
   width="185.42574"
   height="37.367729"
   viewBox="0 0 185.42574 37.367729"
   fill="none"
   version="1.1"
   xmlns="http://www.w3.org/2000/svg">
  <path
     d="m 36.330731,11.2395 c 0.35,-0.3492 0.926,-0.3385 1.289,0.0237 l 7.5,7.5006 c 0.362,0.3623 0.373,0.939 0.024,1.2882 l -13.823,13.823 c -0.349,0.3491 -0.926,0.3385 -1.288,-0.0238 l -7.501,-7.5006 c -0.362,-0.3622 -0.373,-0.939 -0.024,-1.2881 z"
     fill="#ffffff"
     fill-opacity="0.6" />
  <path
     d="m 26.062731,1.0579 c 0.373,-0.3732 0.976,-0.3748 1.348,-0.0035 l 7.687,7.6868 c 0.371,0.3713 0.369,0.9748 -0.004,1.348 l -24.211,24.211 c -0.373,0.3732 -0.977,0.3748 -1.348,0.0035 l -7.687,-7.6868 c -0.371,-0.3713 -0.369,-0.9747 0.004,-1.3479 z"
     fill="#ffffff"
     fill-opacity="0.35" />
  <path
     d="m 20.869731,23.8382 -0.106,-0.1049 -0.105,0.1049 -10.208,10.1364 -8.53,-8.4713 -0.106,-0.105 -0.106,0.105 -1.389,1.3794 -0.107,0.1064 0.107,0.1064 10.026,9.9556 0.105,0.105 0.106,-0.105 10.207,-10.1363 9.801,9.7323 0.044,0.0436 h 0.062 8.755 0.15 v -0.15 -1.9507 -0.15 h -0.15 -7.88 z"
     fill="#ffd13e"
     stroke="#002d3c"
     stroke-width="0.3" />
  <path
     d="m 37.733731,29.6978 c -0.33,0.3324 -0.534,0.7708 -0.576,1.2389 l -0.408,4.5504 c -0.053,0.5997 0.426,1.1117 1.023,1.0933 l 4.812,-0.1482 c 0.507,-0.0156 0.989,-0.2255 1.348,-0.5869 l 6.064,-6.1078 -3.265,-3.2812 -2.886,-2.9144 z"
     fill="#ffffff" />
  <path
     d="m 44.780731,22.6 6.151,6.1957 1.451,-1.4614 c 0.389,-0.3919 0.389,-1.0273 0,-1.4192 l -4.742,-4.7764 c -0.389,-0.392 -1.02,-0.392 -1.409,0 z"
     fill="#ffffff" />
  <path
     d="M 63.196731,14.5276 V 4.3458 h 4.206 c 0.762,0 1.42,0.1375 1.973,0.4126 0.557,0.2718 0.986,0.6629 1.288,1.1733 0.302,0.5071 0.452,1.1087 0.452,1.8047 0,0.706 -0.154,1.3059 -0.462,1.7997 -0.308,0.4906 -0.746,0.8651 -1.313,1.1236 -0.566,0.2552 -1.237,0.3828 -2.013,0.3828 h -2.66 V 9.1036 h 2.203 c 0.371,0 0.681,-0.0481 0.929,-0.1442 0.252,-0.0994 0.443,-0.2486 0.572,-0.4474 0.129,-0.2022 0.194,-0.4607 0.194,-0.7756 0,-0.3149 -0.065,-0.575 -0.194,-0.7805 -0.129,-0.2088 -0.32,-0.3646 -0.572,-0.4674 -0.252,-0.106 -0.561,-0.1591 -0.929,-0.1591 h -1.213 v 8.1982 z m 5.732,-4.6534 2.535,4.6534 h -2.684 l -2.486,-4.6534 z m 7.877,4.6534 V 4.3458 h 6.95 v 1.9986 h -4.489 v 2.088 h 4.047 v 2.0036 h -4.047 v 4.0916 z m 21.772,-6.4929 h -2.486 c -0.033,-0.2552 -0.101,-0.4856 -0.204,-0.691 -0.103,-0.2055 -0.238,-0.3812 -0.408,-0.527 -0.169,-0.1459 -0.369,-0.2569 -0.601,-0.3331 -0.229,-0.0796 -0.482,-0.1194 -0.761,-0.1194 -0.494,0 -0.919,0.121 -1.277,0.363 -0.355,0.2419 -0.629,0.5916 -0.821,1.049 -0.189,0.4574 -0.283,1.0109 -0.283,1.6605 0,0.6761 0.096,1.2429 0.288,1.7003 0.196,0.454 0.469,0.7971 0.821,1.0291 0.354,0.2287 0.773,0.343 1.257,0.343 0.272,0 0.519,-0.0348 0.741,-0.1044 0.225,-0.0696 0.423,-0.1707 0.592,-0.3032 0.172,-0.1359 0.313,-0.3 0.422,-0.4922 0.113,-0.1956 0.191,-0.416 0.234,-0.6612 l 2.486,0.0149 c -0.043,0.4507 -0.174,0.8949 -0.393,1.3324 -0.215,0.4375 -0.512,0.8368 -0.89,1.1981 -0.378,0.358 -0.838,0.643 -1.382,0.8551 -0.54,0.2121 -1.16,0.3182 -1.859,0.3182 -0.922,0 -1.747,-0.2022 -2.476,-0.6065 -0.726,-0.4077 -1.299,-1.001 -1.72,-1.7799 -0.421,-0.7788 -0.632,-1.7268 -0.632,-2.8437 0,-1.1203 0.214,-2.0698 0.642,-2.8487 0.427,-0.7789 1.005,-1.3705 1.735,-1.7749 0.729,-0.4043 1.546,-0.6065 2.451,-0.6065 0.616,0 1.186,0.0862 1.71,0.2585 0.524,0.169 0.984,0.4176 1.382,0.7457 0.398,0.3248 0.721,0.7242 0.969,1.1982 0.249,0.474 0.403,1.0159 0.463,1.6257 z m 13.095999,6.4929 V 4.3458 h 7.099 v 1.9986 h -4.638 v 2.088 h 4.275 v 2.0036 h -4.275 v 2.093 h 4.638 v 1.9986 z m 16.744,0 h -3.764 V 4.3458 h 3.759 c 1.037,0 1.931,0.2038 2.68,0.6115 0.752,0.4043 1.332,0.9877 1.74,1.75 0.407,0.759 0.611,1.6671 0.611,2.7244 0,1.0606 -0.204,1.9721 -0.611,2.7344 -0.405,0.7623 -0.983,1.3473 -1.735,1.755 -0.753,0.4043 -1.646,0.6065 -2.68,0.6065 z m -1.303,-2.098 h 1.208 c 0.571,0 1.053,-0.0961 1.447,-0.2884 0.398,-0.1955 0.698,-0.512 0.9,-0.9495 0.206,-0.4409 0.308,-1.0275 0.308,-1.76 0,-0.7325 -0.102,-1.3158 -0.308,-1.75 -0.205,-0.4375 -0.509,-0.7523 -0.91,-0.9446 -0.397,-0.1955 -0.888,-0.2933 -1.471,-0.2933 h -1.174 z m 14.567,-8.0838 v 10.1818 h -2.461 V 4.3458 Z m 5.552,1.9986 V 4.3458 h 8.606 v 1.9986 h -3.088 v 8.1832 h -2.426 V 6.3444 Z m 23.293,3.0923 c 0,1.1203 -0.216,2.0698 -0.647,2.8487 -0.43,0.7789 -1.014,1.3705 -1.75,1.7749 -0.732,0.4043 -1.554,0.6065 -2.466,0.6065 -0.914,0 -1.738,-0.2038 -2.47,-0.6115 -0.733,-0.4077 -1.315,-0.9993 -1.745,-1.7749 -0.428,-0.7788 -0.642,-1.7268 -0.642,-2.8437 0,-1.1203 0.214,-2.0698 0.642,-2.8487 0.43,-0.7789 1.012,-1.3705 1.745,-1.7749 0.732,-0.4043 1.556,-0.6065 2.47,-0.6065 0.912,0 1.734,0.2022 2.466,0.6065 0.736,0.4044 1.32,0.996 1.75,1.7749 0.431,0.7789 0.647,1.7284 0.647,2.8487 z m -2.516,0 c 0,-0.6629 -0.094,-1.223 -0.283,-1.6804 -0.186,-0.4574 -0.454,-0.8037 -0.806,-1.0391 -0.348,-0.2353 -0.767,-0.353 -1.258,-0.353 -0.487,0 -0.906,0.1177 -1.257,0.353 -0.352,0.2354 -0.622,0.5817 -0.811,1.0391 -0.185,0.4574 -0.278,1.0175 -0.278,1.6804 0,0.6629 0.093,1.223 0.278,1.6804 0.189,0.4574 0.459,0.8037 0.811,1.0391 0.351,0.2353 0.77,0.3529 1.257,0.3529 0.491,0 0.91,-0.1176 1.258,-0.3529 0.352,-0.2354 0.62,-0.5817 0.806,-1.0391 0.189,-0.4574 0.283,-1.0175 0.283,-1.6804 z m 8.292,5.0909 V 4.3458 h 4.206 c 0.763,0 1.421,0.1375 1.974,0.4126 0.557,0.2718 0.986,0.6629 1.288,1.1733 0.301,0.5071 0.452,1.1087 0.452,1.8047 0,0.706 -0.154,1.3059 -0.462,1.7997 -0.308,0.4906 -0.746,0.8651 -1.313,1.1236 -0.566,0.2552 -1.238,0.3828 -2.013,0.3828 h -2.66 V 9.1036 h 2.202 c 0.372,0 0.682,-0.0481 0.93,-0.1442 0.252,-0.0994 0.443,-0.2486 0.572,-0.4474 0.129,-0.2022 0.194,-0.4607 0.194,-0.7756 0,-0.3149 -0.065,-0.575 -0.194,-0.7805 -0.129,-0.2088 -0.32,-0.3646 -0.572,-0.4674 -0.252,-0.106 -0.562,-0.1591 -0.93,-0.1591 h -1.213 v 8.1982 z m 5.733,-4.6534 2.535,4.6534 h -2.684 l -2.486,-4.6534 z"
     fill="#ffffff" />
  <path
     d="m 70.845731,27.164 c 0,0.9204 -0.166,1.7159 -0.498,2.3863 -0.333,0.6705 -0.788,1.1875 -1.368,1.5512 -0.58,0.3636 -1.241,0.5454 -1.986,0.5454 -0.744,0 -1.406,-0.1818 -1.986,-0.5454 -0.579,-0.3637 -1.035,-0.8807 -1.368,-1.5512 -0.332,-0.6704 -0.498,-1.4659 -0.498,-2.3863 0,-0.9205 0.166,-1.7159 0.498,-2.3864 0.333,-0.6705 0.789,-1.1875 1.368,-1.5511 0.58,-0.3637 1.242,-0.5455 1.986,-0.5455 0.745,0 1.406,0.1818 1.986,0.5455 0.58,0.3636 1.035,0.8806 1.368,1.5511 0.332,0.6705 0.498,1.4659 0.498,2.3864 z m -1.022,0 c 0,-0.7557 -0.127,-1.3935 -0.38,-1.9134 -0.25,-0.5199 -0.589,-0.9133 -1.018,-1.1804 -0.426,-0.267 -0.903,-0.4006 -1.432,-0.4006 -0.528,0 -1.007,0.1336 -1.436,0.4006 -0.426,0.2671 -0.766,0.6605 -1.018,1.1804 -0.25,0.5199 -0.375,1.1577 -0.375,1.9134 0,0.7556 0.125,1.3934 0.375,1.9133 0.252,0.5199 0.592,0.9134 1.018,1.1804 0.429,0.2671 0.908,0.4006 1.436,0.4006 0.529,0 1.006,-0.1335 1.432,-0.4006 0.429,-0.267 0.768,-0.6605 1.018,-1.1804 0.253,-0.5199 0.38,-1.1577 0.38,-1.9133 z m 5.578,-2.1819 v 0.8523 h -3.529 v -0.8523 z m -2.472,6.5455 v -7.4489 c 0,-0.375 0.088,-0.6875 0.264,-0.9375 0.177,-0.25 0.405,-0.4375 0.687,-0.5625 0.281,-0.125 0.578,-0.1875 0.89,-0.1875 0.247,0 0.449,0.0199 0.605,0.0597 0.157,0.0398 0.273,0.0767 0.35,0.1108 l -0.29,0.8693 c -0.051,-0.017 -0.122,-0.0383 -0.213,-0.0639 -0.088,-0.0256 -0.205,-0.0384 -0.35,-0.0384 -0.332,0 -0.572,0.0838 -0.72,0.2515 -0.145,0.1676 -0.217,0.4133 -0.217,0.7372 v 7.2102 z m 6.796,-6.5455 v 0.8523 h -3.528 v -0.8523 z m -2.472,6.5455 v -7.4489 c 0,-0.375 0.089,-0.6875 0.265,-0.9375 0.176,-0.25 0.405,-0.4375 0.686,-0.5625 0.281,-0.125 0.578,-0.1875 0.89,-0.1875 0.248,0 0.449,0.0199 0.606,0.0597 0.156,0.0398 0.272,0.0767 0.349,0.1108 l -0.29,0.8693 c -0.051,-0.017 -0.122,-0.0383 -0.213,-0.0639 -0.088,-0.0256 -0.204,-0.0384 -0.349,-0.0384 -0.333,0 -0.573,0.0838 -0.721,0.2515 -0.144,0.1676 -0.217,0.4133 -0.217,0.7372 v 7.2102 z m 3.882,0 v -6.5455 h 1.005 v 6.5455 z m 0.511,-7.6364 c -0.196,0 -0.365,-0.0667 -0.507,-0.2002 -0.139,-0.1336 -0.209,-0.2941 -0.209,-0.4816 0,-0.1875 0.07,-0.348 0.209,-0.4815 0.142,-0.1335 0.311,-0.2003 0.507,-0.2003 0.196,0 0.364,0.0668 0.503,0.2003 0.142,0.1335 0.213,0.294 0.213,0.4815 0,0.1875 -0.071,0.348 -0.213,0.4816 -0.139,0.1335 -0.307,0.2002 -0.503,0.2002 z m 4.995,7.7728 c -0.613,0 -1.142,-0.1449 -1.585,-0.4347 -0.443,-0.2898 -0.784,-0.6889 -1.023,-1.1974 -0.238,-0.5086 -0.358,-1.0895 -0.358,-1.7429 0,-0.6648 0.123,-1.2515 0.367,-1.76 0.247,-0.5113 0.591,-0.9105 1.031,-1.1974 0.443,-0.2898 0.96,-0.4347 1.551,-0.4347 0.46,0 0.875,0.0852 1.245,0.2557 0.369,0.1705 0.671,0.4091 0.907,0.7159 0.236,0.3068 0.382,0.6648 0.439,1.0739 h -1.006 c -0.076,-0.2983 -0.247,-0.5625 -0.511,-0.7926 -0.261,-0.233 -0.614,-0.3495 -1.057,-0.3495 -0.392,0 -0.736,0.1023 -1.031,0.3068 -0.293,0.2017 -0.521,0.4873 -0.686,0.8566 -0.162,0.3665 -0.243,0.7969 -0.243,1.2912 0,0.5057 0.08,0.946 0.239,1.321 0.162,0.375 0.389,0.6662 0.681,0.8736 0.296,0.2074 0.643,0.3111 1.04,0.3111 0.262,0 0.499,-0.0455 0.712,-0.1364 0.213,-0.0909 0.393,-0.2216 0.541,-0.3921 0.148,-0.1704 0.253,-0.375 0.315,-0.6136 h 1.006 c -0.057,0.3864 -0.197,0.7344 -0.422,1.044 -0.221,0.3069 -0.515,0.5512 -0.882,0.733 -0.363,0.179 -0.787,0.2685 -1.27,0.2685 z m 4.044,-0.1364 v -6.5455 h 1.006 v 6.5455 z m 0.512,-7.6364 c -0.196,0 -0.365,-0.0667 -0.507,-0.2002 -0.14,-0.1336 -0.209,-0.2941 -0.209,-0.4816 0,-0.1875 0.069,-0.348 0.209,-0.4815 0.142,-0.1335 0.311,-0.2003 0.507,-0.2003 0.196,0 0.363,0.0668 0.503,0.2003 0.142,0.1335 0.213,0.294 0.213,0.4815 0,0.1875 -0.071,0.348 -0.213,0.4816 -0.14,0.1335 -0.307,0.2002 -0.503,0.2002 z m 4.262,7.7898 c -0.415,0 -0.791,-0.0781 -1.129,-0.2344 -0.338,-0.1591 -0.607,-0.3878 -0.806,-0.686 -0.198,-0.3012 -0.298,-0.6648 -0.298,-1.091 0,-0.375 0.074,-0.6789 0.222,-0.9119 0.147,-0.2358 0.345,-0.4204 0.592,-0.554 0.247,-0.1335 0.52,-0.2329 0.818,-0.2983 0.301,-0.0681 0.604,-0.1221 0.908,-0.1619 0.398,-0.0511 0.72,-0.0895 0.967,-0.115 0.25,-0.0285 0.432,-0.0753 0.546,-0.1407 0.116,-0.0653 0.174,-0.179 0.174,-0.3409 v -0.0341 c 0,-0.4204 -0.115,-0.7471 -0.345,-0.9801 -0.227,-0.2329 -0.572,-0.3494 -1.035,-0.3494 -0.48,0 -0.857,0.1051 -1.13,0.3153 -0.272,0.2102 -0.464,0.4347 -0.575,0.6733 l -0.954,-0.3409 c 0.17,-0.3977 0.397,-0.7074 0.681,-0.929 0.287,-0.2244 0.6,-0.3807 0.938,-0.4687 0.341,-0.0909 0.676,-0.1364 1.006,-0.1364 0.21,0 0.451,0.0256 0.724,0.0767 0.276,0.0483 0.541,0.1492 0.797,0.3026 0.258,0.1534 0.473,0.3849 0.643,0.6946 0.171,0.3096 0.256,0.7244 0.256,1.2443 v 4.3125 h -1.006 v -0.8864 h -0.051 c -0.068,0.1421 -0.182,0.2941 -0.341,0.456 -0.159,0.1619 -0.37,0.2997 -0.635,0.4134 -0.264,0.1136 -0.586,0.1704 -0.967,0.1704 z m 0.154,-0.9034 c 0.397,0 0.732,-0.0781 1.005,-0.2344 0.276,-0.1562 0.483,-0.3579 0.622,-0.6051 0.142,-0.2471 0.213,-0.5071 0.213,-0.7798 v -0.9205 c -0.042,0.0512 -0.136,0.098 -0.281,0.1407 -0.142,0.0397 -0.307,0.0752 -0.494,0.1065 -0.185,0.0284 -0.365,0.054 -0.541,0.0767 -0.174,0.0199 -0.314,0.0369 -0.422,0.0511 -0.262,0.0341 -0.506,0.0895 -0.733,0.1662 -0.225,0.0739 -0.406,0.1861 -0.546,0.3367 -0.136,0.1477 -0.204,0.3494 -0.204,0.6051 0,0.3494 0.129,0.6136 0.388,0.7926 0.261,0.1761 0.592,0.2642 0.993,0.2642 z m 5.686999,-7.9773 v 8.7273 h -1.005 v -8.7273 z m 6.223,4.7898 v 3.9375 h -1.006 v -8.7273 h 1.006 v 3.2046 h 0.085 c 0.154,-0.3381 0.384,-0.6066 0.691,-0.8054 0.309,-0.2017 0.721,-0.3026 1.235,-0.3026 0.446,0 0.837,0.0895 1.172,0.2685 0.335,0.1761 0.595,0.4474 0.78,0.8139 0.188,0.3636 0.281,0.8267 0.281,1.3892 v 4.1591 h -1.005 v -4.0909 c 0,-0.5199 -0.135,-0.9219 -0.405,-1.206 -0.267,-0.2869 -0.638,-0.4304 -1.112,-0.4304 -0.33,0 -0.625,0.0696 -0.887,0.2088 -0.258,0.1392 -0.463,0.3424 -0.613,0.6094 -0.148,0.2671 -0.222,0.5909 -0.222,0.9716 z m 8.743,4.0739 c -0.591,0 -1.109,-0.1407 -1.555,-0.4219 -0.443,-0.2813 -0.79,-0.6747 -1.04,-1.1804 -0.247,-0.5057 -0.371,-1.0966 -0.371,-1.7727 0,-0.6819 0.124,-1.277 0.371,-1.7855 0.25,-0.5086 0.597,-0.9035 1.04,-1.1847 0.446,-0.2813 0.964,-0.4219 1.555,-0.4219 0.591,0 1.108,0.1406 1.551,0.4219 0.446,0.2812 0.793,0.6761 1.04,1.1847 0.25,0.5085 0.375,1.1036 0.375,1.7855 0,0.6761 -0.125,1.267 -0.375,1.7727 -0.247,0.5057 -0.594,0.8991 -1.04,1.1804 -0.443,0.2812 -0.96,0.4219 -1.551,0.4219 z m 0,-0.9034 c 0.449,0 0.818,-0.1151 1.108,-0.3452 0.29,-0.2301 0.504,-0.5327 0.644,-0.9077 0.139,-0.375 0.208,-0.7812 0.208,-1.2187 0,-0.4375 -0.069,-0.8452 -0.208,-1.223 -0.14,-0.3779 -0.354,-0.6833 -0.644,-0.9162 -0.29,-0.233 -0.659,-0.3495 -1.108,-0.3495 -0.449,0 -0.818,0.1165 -1.108,0.3495 -0.289,0.2329 -0.504,0.5383 -0.643,0.9162 -0.139,0.3778 -0.209,0.7855 -0.209,1.223 0,0.4375 0.07,0.8437 0.209,1.2187 0.139,0.375 0.354,0.6776 0.643,0.9077 0.29,0.2301 0.659,0.3452 1.108,0.3452 z m 4.501,0.767 v -6.5455 h 0.972 v 1.0228 h 0.085 c 0.137,-0.3495 0.357,-0.6208 0.661,-0.8139 0.304,-0.1961 0.669,-0.2941 1.095,-0.2941 0.432,0 0.791,0.098 1.078,0.2941 0.29,0.1931 0.516,0.4644 0.678,0.8139 h 0.068 c 0.167,-0.3381 0.419,-0.6066 0.754,-0.8054 0.335,-0.2017 0.737,-0.3026 1.206,-0.3026 0.585,0 1.064,0.1833 1.436,0.5497 0.372,0.3637 0.558,0.9304 0.558,1.7003 v 4.3807 h -1.005 v -4.3807 c 0,-0.4829 -0.133,-0.8281 -0.397,-1.0355 -0.264,-0.2074 -0.575,-0.3111 -0.933,-0.3111 -0.46,0 -0.817,0.1392 -1.07,0.4176 -0.252,0.2756 -0.379,0.625 -0.379,1.0483 v 4.2614 h -1.023 v -4.483 c 0,-0.3721 -0.12,-0.6718 -0.362,-0.8991 -0.241,-0.2301 -0.552,-0.3452 -0.933,-0.3452 -0.261,0 -0.506,0.0696 -0.733,0.2088 -0.224,0.1392 -0.406,0.3324 -0.545,0.5796 -0.137,0.2443 -0.205,0.527 -0.205,0.848 v 4.0909 z m 13.174,0.1364 c -0.63,0 -1.174,-0.1392 -1.632,-0.4176 -0.454,-0.2813 -0.805,-0.6733 -1.052,-1.1762 -0.245,-0.5057 -0.367,-1.0937 -0.367,-1.7642 0,-0.6704 0.122,-1.2614 0.367,-1.7727 0.247,-0.5142 0.591,-0.9148 1.031,-1.2017 0.443,-0.2898 0.96,-0.4347 1.551,-0.4347 0.341,0 0.678,0.0568 1.01,0.1705 0.332,0.1136 0.635,0.2983 0.908,0.554 0.272,0.2528 0.49,0.588 0.652,1.0056 0.162,0.4176 0.243,0.9318 0.243,1.5426 v 0.4262 h -5.046 v -0.8693 h 4.023 c 0,-0.3694 -0.074,-0.6989 -0.222,-0.9887 -0.145,-0.2897 -0.352,-0.5184 -0.622,-0.6861 -0.267,-0.1676 -0.582,-0.2514 -0.946,-0.2514 -0.401,0 -0.747,0.0995 -1.04,0.2983 -0.289,0.196 -0.512,0.4517 -0.669,0.7671 -0.156,0.3153 -0.234,0.6534 -0.234,1.0142 v 0.5795 c 0,0.4943 0.085,0.9134 0.256,1.2571 0.173,0.3409 0.413,0.6009 0.72,0.7799 0.307,0.1761 0.663,0.2642 1.069,0.2642 0.265,0 0.503,-0.037 0.716,-0.1108 0.216,-0.0767 0.402,-0.1904 0.558,-0.341 0.157,-0.1534 0.277,-0.3437 0.363,-0.571 l 0.971,0.2728 c -0.102,0.3295 -0.274,0.6193 -0.515,0.8693 -0.242,0.2471 -0.54,0.4403 -0.895,0.5795 -0.355,0.1364 -0.754,0.2046 -1.198,0.2046 z m 10.274,0 c -0.59,0 -1.109,-0.1407 -1.555,-0.4219 -0.443,-0.2813 -0.79,-0.6747 -1.04,-1.1804 -0.247,-0.5057 -0.37,-1.0966 -0.37,-1.7727 0,-0.6819 0.123,-1.277 0.37,-1.7855 0.25,-0.5086 0.597,-0.9035 1.04,-1.1847 0.446,-0.2813 0.965,-0.4219 1.555,-0.4219 0.591,0 1.108,0.1406 1.552,0.4219 0.446,0.2812 0.792,0.6761 1.039,1.1847 0.25,0.5085 0.375,1.1036 0.375,1.7855 0,0.6761 -0.125,1.267 -0.375,1.7727 -0.247,0.5057 -0.593,0.8991 -1.039,1.1804 -0.444,0.2812 -0.961,0.4219 -1.552,0.4219 z m 0,-0.9034 c 0.449,0 0.819,-0.1151 1.108,-0.3452 0.29,-0.2301 0.505,-0.5327 0.644,-0.9077 0.139,-0.375 0.209,-0.7812 0.209,-1.2187 0,-0.4375 -0.07,-0.8452 -0.209,-1.223 -0.139,-0.3779 -0.354,-0.6833 -0.644,-0.9162 -0.289,-0.233 -0.659,-0.3495 -1.108,-0.3495 -0.448,0 -0.818,0.1165 -1.107,0.3495 -0.29,0.2329 -0.505,0.5383 -0.644,0.9162 -0.139,0.3778 -0.209,0.7855 -0.209,1.223 0,0.4375 0.07,0.8437 0.209,1.2187 0.139,0.375 0.354,0.6776 0.644,0.9077 0.289,0.2301 0.659,0.3452 1.107,0.3452 z m 7.416,-5.7785 v 0.8523 h -3.528 v -0.8523 z m -2.471,6.5455 v -7.4489 c 0,-0.375 0.088,-0.6875 0.264,-0.9375 0.176,-0.25 0.405,-0.4375 0.686,-0.5625 0.281,-0.125 0.578,-0.1875 0.891,-0.1875 0.247,0 0.449,0.0199 0.605,0.0597 0.156,0.0398 0.272,0.0767 0.349,0.1108 l -0.29,0.8693 c -0.051,-0.017 -0.122,-0.0383 -0.213,-0.0639 -0.088,-0.0256 -0.204,-0.0384 -0.349,-0.0384 -0.332,0 -0.573,0.0838 -0.72,0.2515 -0.145,0.1676 -0.218,0.4133 -0.218,0.7372 v 7.2102 z m 7.392,0 v -8.7273 h 2.949 c 0.682,0 1.241,0.1165 1.679,0.3495 0.437,0.2301 0.761,0.5468 0.972,0.9502 0.21,0.4035 0.315,0.8623 0.315,1.3765 0,0.5142 -0.105,0.9701 -0.315,1.3679 -0.211,0.3977 -0.533,0.7102 -0.968,0.9375 -0.434,0.2244 -0.99,0.3366 -1.666,0.3366 h -2.386 V 27.164 h 2.352 c 0.466,0 0.841,-0.0682 1.125,-0.2046 0.287,-0.1363 0.494,-0.3295 0.622,-0.5795 0.131,-0.2529 0.196,-0.554 0.196,-0.9034 0,-0.3495 -0.065,-0.6549 -0.196,-0.9162 -0.131,-0.2614 -0.339,-0.4631 -0.626,-0.6051 -0.287,-0.1449 -0.667,-0.2174 -1.138,-0.2174 h -1.858 v 7.7898 z m 4.108,-3.9205 2.148,3.9205 h -1.227 l -2.114,-3.9205 z m 3.568,3.9205 v -8.7273 h 5.233 v 0.9375 h -4.176 v 2.9489 h 3.784 v 0.9375 h -3.784 v 3.9034 z m 14.066,-6 h -1.057 c -0.063,-0.304 -0.172,-0.571 -0.328,-0.8011 -0.154,-0.2301 -0.341,-0.4233 -0.563,-0.5796 -0.219,-0.1591 -0.461,-0.2784 -0.729,-0.3579 -0.267,-0.0796 -0.545,-0.1194 -0.835,-0.1194 -0.528,0 -1.007,0.1336 -1.436,0.4006 -0.426,0.2671 -0.765,0.6605 -1.018,1.1804 -0.25,0.5199 -0.375,1.1577 -0.375,1.9134 0,0.7556 0.125,1.3934 0.375,1.9133 0.253,0.5199 0.592,0.9134 1.018,1.1804 0.429,0.2671 0.908,0.4006 1.436,0.4006 0.29,0 0.568,-0.0398 0.835,-0.1193 0.268,-0.0796 0.51,-0.1975 0.729,-0.3537 0.222,-0.1591 0.409,-0.3537 0.563,-0.5838 0.156,-0.233 0.265,-0.5 0.328,-0.8012 h 1.057 c -0.08,0.446 -0.225,0.8452 -0.435,1.1975 -0.21,0.3522 -0.472,0.652 -0.784,0.8991 -0.313,0.2443 -0.663,0.4304 -1.053,0.5583 -0.386,0.1278 -0.799,0.1917 -1.24,0.1917 -0.744,0 -1.406,-0.1818 -1.986,-0.5454 -0.579,-0.3637 -1.035,-0.8807 -1.367,-1.5512 -0.333,-0.6704 -0.499,-1.4659 -0.499,-2.3863 0,-0.9205 0.166,-1.7159 0.499,-2.3864 0.332,-0.6705 0.788,-1.1875 1.367,-1.5511 0.58,-0.3637 1.242,-0.5455 1.986,-0.5455 0.441,0 0.854,0.0639 1.24,0.1918 0.39,0.1278 0.74,0.3153 1.053,0.5625 0.312,0.2443 0.574,0.5426 0.784,0.8949 0.21,0.3494 0.355,0.7485 0.435,1.1974 z m 6.207,0.9205 -0.903,0.2556 c -0.057,-0.1505 -0.141,-0.2968 -0.251,-0.4389 -0.108,-0.1449 -0.256,-0.2642 -0.444,-0.3579 -0.187,-0.0938 -0.427,-0.1407 -0.72,-0.1407 -0.4,0 -0.734,0.0924 -1.001,0.277 -0.264,0.1818 -0.397,0.4134 -0.397,0.6946 0,0.25 0.091,0.4475 0.273,0.5924 0.182,0.1448 0.466,0.2656 0.852,0.3622 l 0.972,0.2386 c 0.585,0.1421 1.021,0.3594 1.308,0.652 0.287,0.2898 0.431,0.6633 0.431,1.1207 0,0.375 -0.108,0.7103 -0.324,1.0057 -0.213,0.2955 -0.512,0.5284 -0.895,0.6989 -0.384,0.1704 -0.83,0.2557 -1.338,0.2557 -0.668,0 -1.22,-0.1449 -1.658,-0.4347 -0.437,-0.2898 -0.714,-0.7131 -0.831,-1.2699 l 0.955,-0.2386 c 0.091,0.3523 0.263,0.6165 0.515,0.7926 0.256,0.1761 0.59,0.2642 1.002,0.2642 0.469,0 0.841,-0.0994 1.116,-0.2983 0.279,-0.2017 0.418,-0.4432 0.418,-0.7244 0,-0.2273 -0.08,-0.4176 -0.239,-0.5711 -0.159,-0.1562 -0.403,-0.2727 -0.733,-0.3494 l -1.091,-0.2557 c -0.599,-0.142 -1.039,-0.3622 -1.321,-0.6605 -0.278,-0.3011 -0.417,-0.6775 -0.417,-1.1292 0,-0.3694 0.103,-0.6961 0.311,-0.9802 0.21,-0.284 0.496,-0.5071 0.856,-0.669 0.364,-0.1619 0.776,-0.2429 1.236,-0.2429 0.648,0 1.156,0.1421 1.526,0.4262 0.372,0.284 0.636,0.659 0.792,1.125 z"
     fill="#e1e7ea" />
</svg>
