<?xml version="1.0" encoding="UTF-8" standalone="no"?>
<svg
   width="131.65768"
   height="23.857138"
   viewBox="0 0 131.65768 23.857138"
   fill="none"
   version="1.1"
   id="svg16"
   xmlns="http://www.w3.org/2000/svg"
   xmlns:svg="http://www.w3.org/2000/svg">
  <defs
     id="defs20" />
  <path
     d="M 37.262182,15.996737 V 7.9967371 h 3.3047 c 0.5989,0 1.1158,0.10807 1.5507,0.32422 0.4375,0.21358 0.7748,0.52088 1.0118,0.92188 0.2369,0.3984 0.3554,0.8710999 0.3554,1.4179999 0,0.5546 -0.1211,1.026 -0.3633,1.414 -0.2421,0.3854 -0.5859,0.6797 -1.0312,0.8828 -0.4453,0.2006 -0.9727,0.3008 -1.582,0.3008 h -2.0899 v -1.5234 h 1.7305 c 0.2917,0 0.5351,-0.0378 0.7305,-0.1133 0.1979,-0.0781 0.3476,-0.1953 0.4492,-0.3516 0.1015,-0.1588 0.1523,-0.3619 0.1523,-0.6093 0,-0.2474 -0.0508,-0.4519 -0.1523,-0.6133 -0.1016,-0.1640999 -0.2513,-0.2864999 -0.4492,-0.3671999 -0.198,-0.0833 -0.4414,-0.125 -0.7305,-0.125 h -0.9531 v 6.4413999 z m 4.5039,-3.6563 1.9922,3.6563 h -2.1094 l -1.9531,-3.6563 z m 5.8593,3.6563 V 7.9967371 h 5.4609 v 1.5703 h -3.5273 v 1.6405999 h 3.1797 v 1.5743 h -3.1797 v 3.2148 z m 16.7763,-5.1016 h -1.9532 c -0.026,-0.2005 -0.0794,-0.3815 -0.1601,-0.5429 -0.0807,-0.1615 -0.1875,-0.2995 -0.3203,-0.4140999 -0.1328,-0.1146 -0.2904,-0.2018 -0.4727,-0.2617 -0.1797,-0.0625 -0.3789,-0.0938 -0.5976,-0.0938 -0.3881,0 -0.7227,0.0951 -1.004,0.2852 -0.2786,0.1900999 -0.4934,0.4647999 -0.6445,0.8241999 -0.1484,0.3594 -0.2226,0.7943 -0.2226,1.3047 0,0.5312 0.0755,0.9766 0.2265,1.3359 0.1537,0.3568 0.3685,0.6263 0.6446,0.8086 0.2786,0.1797 0.608,0.2696 0.9882,0.2696 0.2136,0 0.4076,-0.0274 0.5821,-0.0821 0.1771,-0.0547 0.332,-0.1341 0.4648,-0.2382 0.1354,-0.1068 0.2461,-0.2357 0.332,-0.3868 0.0886,-0.1536 0.1498,-0.3268 0.1836,-0.5195 l 1.9532,0.0117 c -0.0339,0.3542 -0.1368,0.7031 -0.3086,1.0469 -0.1693,0.3437 -0.4024,0.6575 -0.6993,0.9414 -0.2968,0.2812 -0.6588,0.5052 -1.0859,0.6719 -0.4245,0.1666 -0.9114,0.25 -1.4609,0.25 -0.724,0 -1.3724,-0.1589 -1.9453,-0.4766 -0.5704,-0.3203 -1.0209,-0.7864 -1.3516,-1.3984 -0.3307,-0.612 -0.4961,-1.3568 -0.4961,-2.2344 0,-0.8802 0.168,-1.6263 0.5039,-2.2382999 0.3359,-0.612 0.7904,-1.0768 1.3633,-1.39451 0.5729,-0.31771 1.2148,-0.47657 1.9258,-0.47657 0.4843,0 0.9323,0.06771 1.3437,0.20313 0.4115,0.13281 0.7735,0.32812 1.086,0.58595 0.3125,0.2552 0.5664,0.569 0.7617,0.9414 0.1953,0.3724 0.3164,0.7981999 0.3633,1.2772999 z m 9.6297,5.1016 V 7.9967371 h 5.5781 v 1.5703 h -3.6445 v 1.6405999 h 3.3594 v 1.5743 h -3.3594 v 1.6445 h 3.6445 v 1.5703 z m 12.8261,0 h -2.957 V 7.9967371 h 2.9531 c 0.8151,0 1.5169,0.16016 2.1054,0.48047 0.5912,0.31773 1.0469,0.77603 1.3672,1.37503 0.3203,0.5962999 0.4805,1.3098999 0.4805,2.1405999 0,0.8333 -0.1602,1.5495 -0.4805,2.1484 -0.3177,0.599 -0.7721,1.0586 -1.3632,1.3789 -0.5912,0.3177 -1.293,0.4766 -2.1055,0.4766 z m -1.0235,-1.6484 h 0.9493 c 0.4479,0 0.8268,-0.0756 1.1367,-0.2266 0.3125,-0.1536 0.5482,-0.4023 0.707,-0.7461 0.1615,-0.3463 0.2422,-0.8073 0.2422,-1.3828 0,-0.5755 -0.0807,-1.0339 -0.2422,-1.375 -0.1614,-0.3438 -0.3997,-0.5912 -0.7148,-0.7421999 -0.3125,-0.1536 -0.6979,-0.2305 -1.1563,-0.2305 h -0.9219 z m 11.1152,-6.3515999 v 7.9999999 h -1.9336 V 7.9967371 Z m 4.032498,1.5703 v -1.5703 h 6.761 v 1.5703 h -2.425 v 6.4296999 h -1.907 V 9.5670371 Z m 17.971,2.4296999 c 0,0.8802 -0.169,1.6263 -0.508,2.2383 -0.338,0.612 -0.796,1.0768 -1.375,1.3945 -0.575,0.3177 -1.221,0.4766 -1.937,0.4766 -0.719,0 -1.366,-0.1602 -1.941,-0.4805 -0.576,-0.3203 -1.033,-0.7852 -1.372,-1.3945 -0.336,-0.612 -0.503,-1.3568 -0.503,-2.2344 0,-0.8802 0.167,-1.6263 0.503,-2.2382999 0.339,-0.612 0.796,-1.0768 1.372,-1.39451 0.575,-0.31771 1.222,-0.47657 1.941,-0.47657 0.716,0 1.362,0.15886 1.937,0.47657 0.579,0.31771 1.037,0.78251 1.375,1.39451 0.339,0.6119999 0.508,1.3580999 0.508,2.2382999 z m -1.976,0 c 0,-0.5208 -0.075,-0.9609 -0.223,-1.3203 -0.146,-0.3594 -0.357,-0.6315 -0.633,-0.8163999 -0.273,-0.1849 -0.603,-0.2774 -0.988,-0.2774 -0.383,0 -0.712,0.0925 -0.988,0.2774 -0.276,0.1848999 -0.489,0.4569999 -0.637,0.8163999 -0.146,0.3594 -0.219,0.7995 -0.219,1.3203 0,0.5208 0.073,0.9609 0.219,1.3203 0.148,0.3594 0.361,0.6315 0.637,0.8164 0.276,0.1849 0.605,0.2774 0.988,0.2774 0.385,0 0.715,-0.0925 0.988,-0.2774 0.276,-0.1849 0.487,-0.457 0.633,-0.8164 0.148,-0.3594 0.223,-0.7995 0.223,-1.3203 z m 6.185,4 V 7.9967371 h 3.305 c 0.599,0 1.116,0.10807 1.551,0.32422 0.437,0.21358 0.774,0.52088 1.011,0.92188 0.237,0.3984 0.356,0.8710999 0.356,1.4179999 0,0.5546 -0.121,1.026 -0.363,1.414 -0.243,0.3854 -0.586,0.6797 -1.032,0.8828 -0.445,0.2006 -0.972,0.3008 -1.582,0.3008 h -2.09 v -1.5234 h 1.731 c 0.292,0 0.535,-0.0378 0.73,-0.1133 0.198,-0.0781 0.348,-0.1953 0.45,-0.3516 0.101,-0.1588 0.152,-0.3619 0.152,-0.6093 0,-0.2474 -0.051,-0.4519 -0.152,-0.6133 -0.102,-0.1640999 -0.252,-0.2864999 -0.45,-0.3671999 -0.198,-0.0833 -0.441,-0.125 -0.73,-0.125 h -0.953 v 6.4413999 z m 4.504,-3.6563 1.992,3.6563 h -2.109 l -1.953,-3.6563 z"
     fill="#ffffff"
     id="path14" />
  <g
     id="g167"
     transform="translate(48.974495,20.737347)">
    <rect
       width="21.952408"
       height="9.7803125"
       rx="1.0000004"
       transform="matrix(0.68890277,-0.72485376,0.68890277,0.72485376,0,0)"
       fill="#0b8cc5"
       fill-opacity="0.5"
       id="rect4"
       x="-31.925297"
       y="-38.763794" />
    <rect
       opacity="0.5"
       width="16.192606"
       height="9.7803125"
       rx="1.0000004"
       transform="matrix(0.68890277,-0.72485376,0.68890277,0.72485376,0,0)"
       fill="#0b8cc5"
       id="rect6"
       x="-26.290604"
       y="-32.093166" />
    <g
       opacity="0.5"
       id="g12"
       transform="translate(-48.697913,-21.11661)">
      <path
         d="m 21.2708,19.1105 c -0.2046,0.2152 -0.3309,0.4992 -0.3569,0.8024 l -0.2528,2.9472 c -0.0333,0.3884 0.2637,0.72 0.6342,0.7081 l 2.9831,-0.096 c 0.3144,-0.0101 0.6134,-0.1461 0.8359,-0.3801 l 3.7596,-3.9559 -2.0244,-2.1252 -1.7894,-1.8876 z"
         fill="#0b8cc5"
         id="path8-5" />
      <path
         d="m 25.6399,14.5133 3.8138,4.0129 0.8995,-0.9465 c 0.2413,-0.2539 0.2413,-0.6654 0,-0.9193 l -2.9401,-3.0936 c -0.2413,-0.2538 -0.6324,-0.2538 -0.8737,0 z"
         fill="#0b8cc5"
         id="path10-9" />
    </g>
  </g>
</svg>
